<svg version="1.1" id="_001" xmlns="http://www.w3.org/2000/svg" x="0" y="0" viewBox="0 0 128 128" xml:space="preserve"><style>.st0{opacity:.3}.st2{fill:#eef6ff}.st3{fill:#5cbeff}.st4{fill:#fff}.st5{fill:#6d6daa}.st6{fill:#939fc6}.st7{fill:#b1f1a8}.st8{fill:#89dbba}.st9{fill:#ff9797}.st10{fill:#ffc661}.st11{fill:#fff27d}.st13{fill:none}.st14{fill:#4c5a7f}.st16{opacity:.15;fill:#595959}</style><g class="st0"><path d="M126.7 47.7c-1.8-12.4-11.2-22.4-23.5-25-4.3-.9-8.1-3.2-10.9-6.5C79.1.5 55.7-1.4 40.1 11.7c-6 5.1-10.3 12-12.1 19.7-1.5 5.9-5.4 10.9-10.9 13.7C2.9 52.5-4.2 71.6 8.8 89.5c1.7 2.1 3.9 3.8 6.4 4.9 4.6 2.3 8.1 6.1 10 10.9 5.9 14.6 22.6 21.6 37.1 15.6 1.9-.8 3.8-1.8 5.5-3 4.8-3.4 10.9-4.5 16.7-2.9 15.5 4.2 31.4-4.9 35.6-20.4 1.2-4.4 1.3-9 .4-13.4-.9-4.9 0-9.9 2.5-14.1 3.3-5.9 4.7-12.7 3.7-19.4z" fill="#97c1ff"/><path class="st2" d="M47.1 19c.7-4.9-2.7-9.5-7.7-10.2-4.3-.6-8.4 1.9-9.8 6-2.1-1.7-5.1-1.3-6.8.8-.7.8-1 1.9-1 3v.4c-3.8 1.3-5.8 5.4-4.5 9.1 1 2.9 3.8 4.9 6.9 4.9h20.5c4 0 7.2-3.2 7.2-7.1.1-3.1-1.9-5.9-4.8-6.9z"/><g class="st0"><path class="st3" d="M44.7 30.6H24.2c-3.5 0-6.5-2.5-7.1-6-.7 3.9 2 7.6 5.9 8.3.4.1.8.1 1.2.1h20.5c4 0 7.2-3.2 7.2-7.2 0-.4 0-.8-.1-1.3-.6 3.6-3.6 6.1-7.1 6.1z"/></g><path class="st4" d="M21.8 21.4V21c0-2.7 2.2-4.8 4.8-4.8 1.1 0 2.1.4 3 1 1.6-4.7 6.8-7.2 11.5-5.5 4 1.4 6.5 5.5 6 9.7 2.5.9 4.3 3 4.8 5.6.6-3.5-1.4-6.9-4.8-8 .7-4.9-2.7-9.5-7.7-10.2-4.3-.6-8.4 1.9-9.8 6-2.1-1.7-5.1-1.3-6.8.8-.7.8-1 1.9-1 3v.4c-3.3 1.1-5.4 4.5-4.7 8 .4-2.6 2.3-4.7 4.7-5.6z"/><path class="st5" d="M44.7 34H24.2c-4.5 0-8.2-3.6-8.2-8.1 0-3.2 1.9-6.2 4.8-7.5.1-3.2 2.8-5.7 6-5.6.8 0 1.6.2 2.3.6 2.5-4.9 8.5-6.9 13.4-4.4 3.4 1.7 5.6 5.3 5.5 9.1v.3c4.1 1.9 6 6.7 4.1 10.8-1.2 2.9-4.1 4.8-7.4 4.8zM26.6 14.8c-2.1 0-3.8 1.7-3.8 3.8v.3c0 .4-.2.9-.7 1-3.2 1.2-4.9 4.7-3.7 7.9.9 2.4 3.2 4 5.7 4.1h20.5c3.4 0 6.2-2.7 6.2-6.2 0-2.7-1.7-5.1-4.2-5.9-.4-.2-.7-.6-.7-1.1.6-4.4-2.4-8.4-6.8-9.1-3.8-.5-7.5 1.7-8.7 5.4-.2.5-.8.8-1.3.6-.1 0-.2-.1-.3-.2-.5-.4-1.3-.6-2.2-.6z"/><path class="st2" d="M44.7 18.6c.8 0 1.6.1 2.4.4"/><path class="st5" d="M47.1 20c-.1 0-.2 0-.3-.1-.6-.2-1.3-.3-2-.3-.6 0-1-.4-1-1s.4-1 1-1c.9 0 1.8.2 2.7.5.5.2.8.7.6 1.3-.1.3-.6.6-1 .6z"/><path class="st2" d="M21.8 19c.8-.3 1.6-.4 2.4-.4"/><path class="st5" d="M21.8 20c-.6 0-1-.5-1-1 0-.4.3-.8.7-.9.9-.3 1.8-.5 2.7-.5.6 0 1 .4 1 1s-.4 1-1 1c-.7 0-1.4.1-2.1.4h-.3z"/><path class="st2" d="M29.6 14.8c.5.4 1 1 1.3 1.6"/><path class="st5" d="M30.9 17.4c-.4 0-.7-.2-.9-.5-.2-.5-.6-.9-1-1.2-.4-.4-.5-1-.1-1.4.3-.4.9-.5 1.3-.2.7.5 1.2 1.2 1.6 1.9.3.5.1 1.1-.4 1.3-.2 0-.3 0-.5.1z"/><path class="st2" d="M10.4 93.5c-.7-6.2 3.8-11.8 10-12.4 5.1-.6 10 2.4 11.8 7.2 2.6-2.1 6.3-1.7 8.4.9.9 1.1 1.4 2.4 1.3 3.8v.5c4.7 1.6 7.2 6.8 5.5 11.5-1.3 3.6-4.7 6-8.5 6H13.4c-5 0-9-4-9-9 0-3.8 2.4-7.2 6-8.5z"/><g class="st0"><path class="st3" d="M13.4 108H39c4.4 0 8.2-3.2 8.9-7.5.8 4.9-2.5 9.6-7.4 10.4-.5.1-1 .1-1.6.1H13.4c-5 0-9-4-9-9 0-.5 0-1 .1-1.6.7 4.4 4.4 7.6 8.9 7.6z"/></g><path class="st4" d="M42 96.5V96c0-3.3-2.7-6-6-6-1.4 0-2.7.5-3.8 1.3-2.2-5.8-8.7-8.7-14.6-6.5-4.8 1.8-7.7 6.6-7.2 11.7-3.1 1.1-5.4 3.7-6 7-.8-4.4 1.8-8.6 6-10-.7-6.2 3.8-11.8 10-12.4 5.1-.6 10 2.4 11.8 7.2 2.6-2.1 6.3-1.7 8.4.9.9 1.1 1.4 2.4 1.3 3.8v.5c4.2 1.4 6.7 5.7 5.9 10-.4-3.2-2.7-5.9-5.8-7z"/><path class="st5" d="M39 112H13.4c-5.5 0-10-4.5-10-10 0-4 2.4-7.6 6-9.2v-.6c0-6.8 5.6-12.3 12.4-12.2 4.6 0 8.9 2.7 11 6.8 3.4-1.8 7.6-.6 9.5 2.8.5 1 .8 2.1.8 3.2 5.1 2.2 7.4 8.1 5.2 13.1-1.7 3.7-5.3 6.1-9.3 6.1zM21.6 82c-5.7 0-10.3 4.6-10.3 10.3 0 .4 0 .8.1 1.1.1.5-.2.9-.7 1.1-4.2 1.4-6.4 6-4.9 10.2 1.1 3.2 4.2 5.4 7.6 5.4H39c4.4 0 8-3.6 8-8 0-3.4-2.1-6.4-5.3-7.5-.4-.1-.7-.6-.7-1v-.4c0-2.8-2.2-5-5-5-1.2 0-2.3.4-3.2 1.1-.4.3-1.1.3-1.4-.2-.1-.1-.1-.2-.2-.3-1.4-4.1-5.3-6.8-9.6-6.8z"/><path class="st2" d="M13.4 93c-1 0-2 .2-3 .5"/><path class="st5" d="M10.4 94.5c-.6 0-1-.4-1-1 0-.4.3-.8.7-1 1.1-.4 2.2-.6 3.3-.6.6 0 1 .4 1 1s-.4 1-1 1c-.9 0-1.8.1-2.6.4-.2.2-.3.2-.4.2z"/><path class="st2" d="M42 93.5c-1-.3-2-.5-3-.5"/><path class="st5" d="M42 94.5c-.1 0-.2 0-.3-.1-.9-.3-1.8-.4-2.7-.4-.6 0-1-.4-1-1s.4-1 1-1c1.1 0 2.3.2 3.3.6.5.2.8.8.6 1.3-.1.3-.5.6-.9.6z"/><path class="st2" d="M32.3 88.3c-.7.5-1.2 1.2-1.6 2"/><path class="st5" d="M30.6 91.2c-.6 0-1-.5-1-1 0-.2 0-.3.1-.5.5-.9 1.1-1.7 1.9-2.3.4-.3 1.1-.3 1.4.2.3.4.3 1.1-.2 1.4-.6.4-1 1-1.4 1.6-.1.4-.4.6-.8.6z"/><path class="st2" d="M95.3 18.7c-.5-3.3 1.8-6.3 5.1-6.8 2.8-.4 5.6 1.3 6.5 4 1.4-1.1 3.4-.9 4.5.5.5.6.7 1.3.7 2v.3c2.5.8 3.9 3.6 3 6.1-.7 2-2.5 3.3-4.6 3.3H96.8c-2.7 0-4.8-2.1-4.8-4.8 0-2.1 1.3-4 3.3-4.6z"/><path class="st4" d="M95.3 20.7c-.5-3.3 1.8-6.3 5.1-6.8 2.8-.4 5.6 1.3 6.5 4 1.4-1.1 3.4-.9 4.5.5.5.6.7 1.3.7 2v.3c1.6.6 2.8 1.9 3.1 3.5.5-2.4-.8-4.8-3.1-5.5v-.3c0-1.8-1.4-3.2-3.2-3.2-.7 0-1.4.2-2 .7-1.1-3.1-4.5-4.8-7.6-3.7-2.7.9-4.4 3.7-4 6.5-2.3.8-3.7 3.2-3.1 5.6.3-1.7 1.5-3.1 3.1-3.6z"/><g class="st0"><path class="st3" d="M110.5 26H96.8c-2.3 0-4.2-1.6-4.7-3.8-.1.3-.1.7-.1 1 0 2.6 2.2 4.8 4.8 4.8h13.7c2.7 0 4.8-2.1 4.8-4.8 0-.3 0-.7-.1-1-.5 2.2-2.5 3.8-4.7 3.8z"/></g><path class="st5" d="M110.5 29H96.8c-3.2 0-5.8-2.5-5.9-5.7 0-2.2 1.2-4.3 3.3-5.3 0-3.9 3.1-7 6.9-7.1 2.6 0 4.9 1.3 6.2 3.6 2.2-.9 4.6.2 5.5 2.4.1.4.2.7.3 1.1 2.9 1.4 4.1 4.9 2.7 7.7-1 2.1-3.1 3.3-5.3 3.3zm-9.3-16c-2.8 0-5 2.2-5 5v.6c0 .5-.2.9-.7 1-2 .7-3 2.9-2.3 4.8.5 1.5 2 2.6 3.6 2.6h13.7c2.1 0 3.8-1.7 3.8-3.7 0-1.6-1-3.1-2.6-3.6-.4-.1-.7-.6-.7-1v-.2c0-1.2-1-2.2-2.2-2.2-.5 0-1 .2-1.4.5-.4.3-1.1.3-1.4-.2-.1-.1-.1-.2-.2-.3-.6-2-2.5-3.3-4.6-3.3z"/><path class="st2" d="M96.8 18.4c-.5 0-1.1.1-1.6.3"/><path class="st5" d="M95.2 19.7c-.6 0-1-.4-1-1 0-.4.3-.8.7-1 .6-.2 1.3-.3 1.9-.3.6 0 1 .4 1 1s-.4 1-1 1c-.4 0-.8.1-1.3.2 0 0-.1.1-.3.1z"/><path class="st2" d="M112.1 18.7c-.5-.2-1-.3-1.6-.3"/><path class="st5" d="M112.1 19.7c-.1 0-.2 0-.3-.1-.4-.1-.8-.2-1.3-.2-.6 0-1-.4-1-1s.4-1 1-1c.7 0 1.3.1 1.9.3.5.2.8.8.6 1.3-.1.4-.5.7-.9.7z"/><path class="st2" d="M106.9 15.9c-.4.3-.7.6-.9 1"/><path class="st5" d="M106 17.9c-.6 0-1-.5-1-1 0-.2 0-.3.1-.5.3-.5.7-1 1.1-1.4.4-.3 1.1-.3 1.4.2.3.4.3 1.1-.2 1.4-.2.2-.5.4-.6.7-.1.4-.4.6-.8.6z"/><path class="st4" d="M122.5 67c-.6 0-1-.4-1-1 0-.3.1-.5.3-.7.2-.2.6-.3.9-.3.1 0 .1 0 .2.1.1 0 .1.1.2.1s.1.1.2.1c.2.2.3.4.3.7 0 .3-.1.5-.3.7-.3.2-.5.3-.8.3zM120.5 71h-6c-.6 0-1-.4-1-1s.4-1 1-1h6c.6 0 1 .4 1 1s-.4 1-1 1zM118.5 67h-7c-.6 0-1-.4-1-1s.4-1 1-1h7c.6 0 1 .4 1 1s-.4 1-1 1zM110.5 71h-2c-.6 0-1-.4-1-1s.4-1 1-1h2c.6 0 1 .4 1 1s-.4 1-1 1zM118.5 75h-8c-.6 0-1-.4-1-1s.4-1 1-1h8c.6 0 1 .4 1 1s-.4 1-1 1zM75 22c-.1 0-.3 0-.4-.1-.1-.1-.2-.1-.3-.2-.4-.4-.4-1 0-1.4.1-.1.2-.2.3-.2.4-.2.8-.1 1.1.2.4.4.4 1 0 1.4-.2.2-.4.3-.7.3zM76 18h-2c-.6 0-1-.4-1-1s.4-1 1-1h2c.6 0 1 .4 1 1s-.4 1-1 1zM79 14H69c-.6 0-1-.4-1-1s.4-1 1-1h10c.6 0 1 .4 1 1s-.4 1-1 1zM70 18h-4c-.6 0-1-.4-1-1s.4-1 1-1h4c.6 0 1 .4 1 1s-.4 1-1 1zM71 22h-8c-.6 0-1-.4-1-1s.4-1 1-1h8c.6 0 1 .4 1 1s-.4 1-1 1z"/><path class="st2" d="M81.3 103c-1.1-4.3 1.5-8.6 5.7-9.7 2.1-.5 4.3-.2 6.1.9 3.5-4.6 10.1-5.5 14.7-2 2.3 1.8 3.8 4.4 4.1 7.3 3.9 1.3 6 5.6 4.7 9.5-1 3.1-3.9 5.1-7.1 5.1h-28c-3 .1-5.6-2.3-5.6-5.4-.1-3.1 2.3-5.6 5.4-5.7z"/><path class="st4" d="M81.3 106c-.3-1-.3-2-.2-3-3 .2-5.3 2.8-5 5.9 0 .4.1.8.2 1.1.6-2.3 2.6-3.9 5-4zM89 96c1.5 0 2.9.4 4.1 1.2 3.5-4.6 10.1-5.5 14.7-2 2.3 1.8 3.8 4.4 4.1 7.3 2.5.9 4.4 3 4.9 5.6.8-3.7-1.3-7.4-4.9-8.6-.6-5.8-5.8-10-11.5-9.4-2.9.3-5.5 1.8-7.3 4.1-3.8-2.3-8.7-1.1-11 2.7-.8 1.2-1.2 2.7-1.2 4.1 0 .5.1 1 .2 1.4.8-3.7 4.1-6.4 7.9-6.4z"/><path class="st3" d="M81.3 100c0-.2-.1-.4-.1-.6 0 .2-.1.4-.1.6h.2z"/><g class="st0"><path class="st3" d="M109.5 111h-28c-2.5 0-4.6-1.6-5.3-4-.1.5-.2 1-.2 1.5 0 3 2.5 5.5 5.5 5.5h28c4.1 0 7.5-3.2 7.5-7.4 0-.6-.1-1.1-.2-1.6-.7 3.5-3.7 6-7.3 6z"/></g><path class="st5" d="M109.5 115h-28c-3.6 0-6.5-2.9-6.5-6.5 0-3 2.1-5.7 5.1-6.3-.1-.4-.1-.8-.1-1.2 0-5 4-9 9-9 1.3 0 2.7.3 3.9.9 4.2-4.8 11.4-5.3 16.2-1.1 2 1.8 3.4 4.2 3.8 6.9 4.3 1.9 6.3 6.9 4.5 11.2a8.68 8.68 0 01-7.9 5.1zM89 94c-3.9 0-7 3.1-7 7 0 .6.1 1.2.2 1.8.1.5-.2 1.1-.7 1.2h-.2c-2.5.1-4.5 2.1-4.4 4.6s2.1 4.5 4.6 4.4h28c3.6 0 6.5-2.9 6.5-6.5 0-2.8-1.8-5.2-4.4-6.1-.4-.1-.6-.5-.7-.8-.5-5.2-5.2-9-10.4-8.5-2.6.3-5 1.6-6.6 3.7-.3.4-.9.5-1.3.3-1.1-.7-2.3-1.1-3.6-1.1z"/><path class="st5" d="M111.5 104.8c-.6 0-1-.4-1-.9v-.4c1.6-5-1.1-10.4-6.1-12-.9-.3-1.9-.5-2.9-.5-.6 0-1-.4-1-1s.4-1 1-1c6.4 0 11.5 5.2 11.5 11.5 0 1.2-.2 2.4-.6 3.5-.1.5-.5.7-.9.8zM85.1 105.4c-.2 0-.5-.1-.7-.3-.8-.7-1.9-1.1-3-1.1-.6 0-1-.4-1-1s.4-1 1-1c1.6 0 3.1.6 4.3 1.6.4.4.5 1 .1 1.4-.2.2-.4.4-.7.4zM95.5 97.3c-.3 0-.6-.2-.8-.4A7.01 7.01 0 0089 94c-.6 0-1-.4-1-1s.4-1 1-1c2.9 0 5.6 1.4 7.3 3.8.3.4.2 1.1-.2 1.4-.2.1-.4.1-.6.1z"/></g><circle class="st2" cx="65" cy="64" r="42"/><circle class="st6" cx="65" cy="64" r="35"/><g class="st0"><path class="st4" d="M65 95c-18.6 0-33.9-14.5-34.9-33 0 .7-.1 1.3-.1 2 0 19.3 15.7 35 35 35s35-15.7 35-35c0-.7 0-1.3-.1-2-1 18.5-16.3 33-34.9 33z"/></g><g class="st0"><path class="st4" d="M55.5 81.4c-.6 0-1-.5-1-1 0-.2 0-.3.1-.4l.5-.9c-8.3-5.5-10.6-16.6-5.1-24.9S66.6 43.5 74.9 49c.9.6 1.7 1.2 2.4 1.9 7.2 6.8 7.5 18.2.7 25.4-.9 1-2 1.9-3.1 2.6l.5 1c.3.5.1 1.1-.4 1.4-.5.3-1.1.1-1.4-.4l-.5-.9c-.5-.9-.2-2.1.7-2.6 7.4-4.9 9.4-14.8 4.6-22.2-4.9-7.4-14.8-9.4-22.2-4.6s-9.4 14.8-4.6 22.2c1.2 1.8 2.7 3.4 4.6 4.6.9.6 1.2 1.7.7 2.6l-.5.9c-.2.4-.5.6-.9.5z"/></g><path class="st7" d="M50.5 38.9l5 8.7c-2.9 1.7-5.3 4.1-7 7l-8.7-5c2.6-4.5 6.3-8.2 10.7-10.7z"/><path class="st7" d="M39.9 49.5l8.7 5C46.9 57.4 46 60.7 46 64H36c0-5.1 1.3-10.1 3.9-14.5z"/><path class="st8" d="M48.5 73.5l-8.7 5C37.3 74.1 36 69.1 36 64h10c0 3.3.9 6.6 2.5 9.5zM55.5 80.4l-5 8.7c-4.4-2.6-8.1-6.2-10.6-10.6l8.7-5c1.6 2.9 4 5.3 6.9 6.9z"/><path class="st9" d="M90.1 78.5c-2.6 4.4-6.2 8.1-10.6 10.6l-5-8.7c2.9-1.7 5.3-4.1 7-7l8.6 5.1z"/><path class="st9" d="M84 64h10c0 5.1-1.3 10.1-3.9 14.5l-8.7-5c1.7-2.9 2.6-6.2 2.6-9.5z"/><path class="st10" d="M94 64H84c0-3.3-.9-6.6-2.6-9.5l8.7-5C92.7 53.9 94 58.9 94 64zM90.1 49.5l-8.7 5c-1.7-2.9-4.1-5.3-7-7l5-8.7c4.5 2.6 8.2 6.3 10.7 10.7z"/><path class="st11" d="M79.5 38.9l-5 8.7C71.6 45.9 68.3 45 65 45V35c5.1 0 10.1 1.3 14.5 3.9zM65 35v10c-3.3 0-6.6.9-9.5 2.5l-5-8.7C54.9 36.3 59.9 35 65 35z"/><g opacity=".5"><path class="st5" d="M65 38c-.6 0-1-.4-1-1v-2c0-.6.4-1 1-1s1 .4 1 1v2c0 .6-.4 1-1 1zM94 65h-2c-.6 0-1-.4-1-1s.4-1 1-1h2c.6 0 1 .4 1 1s-.4 1-1 1zM38 65h-2c-.6 0-1-.4-1-1s.4-1 1-1h2c.6 0 1 .4 1 1s-.4 1-1 1z"/><path class="st13" d="M60 35.4l.3 2"/><path class="st5" d="M60.3 38.4c-.5 0-.9-.3-1-.8l-.3-2c-.1-.6.3-1.1.8-1.2s1.1.3 1.2.8l.3 2c.1.5-.3 1.1-.8 1.2h-.2z"/><path class="st13" d="M93.6 59l-2 .3"/><path class="st5" d="M91.6 60.3c-.6 0-1-.4-1.1-.9s.4-1 .9-1.1l2-.3c.6-.1 1.1.3 1.2.8.1.6-.3 1.1-.8 1.2l-2 .3h-.2z"/><path class="st13" d="M38.4 68.7l-2 .3"/><path class="st5" d="M36.4 70c-.6 0-1-.4-1.1-.9s.4-1 .9-1.1l2-.3c.6-.1 1.1.3 1.2.8.1.6-.3 1.1-.8 1.2l-2 .3h-.2z"/><path class="st13" d="M55.1 36.8l.7 1.8"/><path class="st5" d="M55.8 39.6c-.4 0-.8-.3-.9-.7l-.7-1.9c-.3-.5-.1-1.1.4-1.4.5-.3 1.1-.1 1.4.4.1.1.1.2.1.3l.7 1.9c.2.5-.1 1.1-.6 1.3-.2.1-.3.1-.4.1z"/><path class="st13" d="M92.3 54.1l-1.9.7"/><path class="st5" d="M90.4 55.8c-.6 0-1-.4-1-1 0-.4.3-.8.7-1l1.9-.7c.5-.3 1.1-.1 1.4.4.3.5.1 1.1-.4 1.4-.1 0-.2.1-.3.1l-1.9.7c-.2 0-.3.1-.4.1z"/><path class="st13" d="M39.6 73.2l-1.8.7"/><path class="st5" d="M37.8 74.9c-.6 0-1-.5-.9-1 0-.4.3-.7.6-.9l1.9-.7c.5-.3 1.1-.1 1.4.4s.1 1.1-.4 1.4c-.1 0-.2.1-.3.1l-1.9.7h-.4z"/><path class="st13" d="M50.5 38.9l1 1.7"/><path class="st5" d="M51.5 41.6c-.4 0-.7-.2-.9-.5l-1-1.7c-.3-.5-.2-1.1.3-1.4.5-.3 1.1-.2 1.4.3v.1l1 1.7c.3.5.1 1.1-.4 1.4-.1.1-.2.1-.4.1z"/><path class="st13" d="M78.5 87.4l1 1.7"/><path class="st5" d="M79.5 90.1c-.4 0-.7-.2-.9-.5l-1-1.7c-.3-.5-.1-1.1.4-1.3.5-.2 1-.1 1.3.3l1 1.7c.3.5.1 1.1-.4 1.4-.1.1-.2.1-.4.1z"/><path class="st13" d="M90.1 49.5l-1.7 1"/><path class="st5" d="M88.4 51.5c-.6 0-1-.4-1-1 0-.4.2-.7.5-.9l1.7-1c.5-.3 1.1-.1 1.3.4.2.5.1 1-.3 1.3l-1.7 1c-.2.1-.3.2-.5.2z"/><path class="st13" d="M41.6 77.5l-1.7 1"/><path class="st5" d="M39.9 79.5c-.6 0-1-.4-1-1 0-.4.2-.7.5-.9l1.7-1c.5-.3 1.1-.1 1.3.4.2.5.1 1-.3 1.3l-1.7 1c-.2.1-.3.2-.5.2z"/><path class="st13" d="M46.4 41.8l1.2 1.5"/><path class="st5" d="M47.7 44.3c-.3 0-.6-.1-.8-.4l-1.3-1.5c-.4-.4-.3-1.1.1-1.4s1.1-.3 1.4.1l1.3 1.5c.4.4.3 1.1-.1 1.4-.2.2-.4.3-.6.3z"/><path class="st13" d="M82.4 84.7l1.2 1.5"/><path class="st5" d="M83.6 87.2c-.3 0-.6-.1-.8-.4l-1.3-1.5c-.4-.4-.3-1.1.1-1.4.4-.4 1.1-.3 1.4.1l1.3 1.5c.4.4.3 1.1-.1 1.4-.1.2-.3.3-.6.3z"/><path class="st13" d="M87.2 45.4l-1.5 1.2"/><path class="st5" d="M85.7 47.6c-.6 0-1-.4-1-1 0-.3.1-.6.4-.8l1.5-1.3c.4-.4 1.1-.3 1.4.1.4.4.3 1.1-.1 1.4l-1.5 1.3c-.3.3-.5.3-.7.3z"/><path class="st13" d="M44.3 81.4l-1.5 1.2"/><path class="st5" d="M42.8 83.6c-.6 0-1-.4-1-1 0-.3.1-.6.4-.8l1.5-1.3c.4-.4 1.1-.3 1.4.1s.3 1.1-.1 1.4l-1.5 1.3c-.2.3-.5.4-.7.3z"/><path class="st13" d="M42.8 45.4l1.5 1.2"/><path class="st5" d="M44.3 47.6c-.2 0-.5-.1-.6-.2l-1.5-1.3c-.4-.4-.5-1-.1-1.4s1-.5 1.4-.1l1.6 1.3c.4.4.5 1 .1 1.4-.3.2-.5.4-.9.3z"/><path class="st13" d="M85.7 81.4l1.5 1.2"/><path class="st5" d="M87.2 83.6c-.2 0-.5-.1-.6-.2L85 82.1c-.4-.4-.5-1-.1-1.4.4-.4 1-.5 1.4-.1l1.5 1.3c.4.4.5 1 .1 1.4-.1.2-.4.4-.7.3z"/><path class="st13" d="M83.6 41.8l-1.2 1.5"/><path class="st5" d="M82.4 44.3c-.6 0-1-.4-1-1 0-.2.1-.5.2-.6l1.3-1.5c.4-.4 1-.5 1.4-.1.4.4.5 1 .1 1.4L83.1 44c-.2.2-.5.3-.7.3z"/><path class="st13" d="M47.6 84.7l-1.2 1.5"/><path class="st5" d="M46.4 87.2c-.6 0-1-.4-1-1 0-.2.1-.5.2-.6l1.3-1.6c.4-.4 1-.5 1.4-.1.4.4.5 1 .1 1.4l-1.3 1.5c-.2.3-.4.4-.7.4z"/><path class="st13" d="M39.9 49.5l1.7 1"/><path class="st5" d="M41.6 51.5c-.2 0-.3 0-.5-.1l-1.7-1c-.5-.3-.7-.9-.4-1.3s.9-.7 1.3-.4h.1l1.7 1c.5.3.6.9.4 1.4-.2.2-.5.4-.9.4z"/><path class="st13" d="M88.4 77.5l1.7 1"/><path class="st5" d="M90.1 79.5c-.2 0-.3 0-.5-.1l-1.7-1c-.5-.3-.7-.9-.4-1.3.3-.5.9-.7 1.3-.4h.1l1.7 1c.5.3.6.9.4 1.4-.2.2-.5.4-.9.4z"/><path class="st13" d="M79.5 38.9l-1 1.7"/><path class="st5" d="M78.5 41.6c-.6 0-1-.4-1-1 0-.2 0-.4.1-.5l1-1.7c.3-.5.9-.7 1.3-.4.5.3.7.9.4 1.3v.1l-1 1.7c-.1.3-.4.5-.8.5z"/><path class="st13" d="M51.5 87.4l-1 1.7"/><path class="st5" d="M50.5 90.1c-.6 0-1-.4-1-1 0-.2 0-.4.1-.5l1-1.7c.3-.5.9-.7 1.3-.4.5.3.7.9.4 1.3v.1l-1 1.7c-.1.3-.4.5-.8.5z"/><path class="st13" d="M37.8 54.1l1.8.7"/><path class="st5" d="M39.6 55.8c-.1 0-.2 0-.3-.1l-1.9-.7c-.5-.2-.8-.7-.6-1.3.2-.5.7-.8 1.3-.6h.1l1.9.7c.5.2.8.8.6 1.3-.3.4-.6.6-1.1.7z"/><path class="st13" d="M90.4 73.2l1.9.7"/><path class="st5" d="M92.3 74.9c-.1 0-.2 0-.3-.1l-2-.6c-.5-.2-.8-.7-.6-1.3.2-.5.7-.8 1.3-.6h.1l1.9.7c.5.2.8.8.6 1.3-.3.3-.7.6-1 .6z"/><path class="st13" d="M74.9 36.8l-.7 1.8"/><path class="st5" d="M74.2 39.6c-.6 0-1-.4-1-1 0-.1 0-.2.1-.3l.7-1.9c.2-.5.7-.8 1.3-.6s.8.7.6 1.3v.1l-.7 1.8c-.2.4-.6.6-1 .6z"/><path class="st13" d="M36.4 59l2 .3"/><path class="st5" d="M38.4 60.3h-.2l-2-.3c-.6-.1-.9-.6-.8-1.2s.6-.9 1.2-.8l2 .3c.6 0 1 .5.9 1.1s-.5 1-1.1.9z"/><path class="st13" d="M91.6 68.7l2 .3"/><path class="st5" d="M93.6 70h-.2l-2-.3c-.6-.1-.9-.6-.8-1.2.1-.6.6-.9 1.2-.8l2 .3c.6 0 1 .5.9 1.1s-.6.9-1.1.9z"/><path class="st13" d="M70 35.4l-.3 2"/><path class="st5" d="M69.7 38.4h-.2c-.5-.1-.9-.6-.8-1.2l.3-2c.1-.6.6-.9 1.2-.8.6.1.9.6.8 1.2l-.3 2c-.1.5-.5.8-1 .8z"/></g><path class="st5" d="M48.5 55.5c-.2 0-.3 0-.5-.1l-8.6-5c-.5-.2-.7-.8-.4-1.3 2.6-4.6 6.4-8.4 11-11 .5-.3 1.1-.1 1.4.4v.1l5 8.6c.3.5.1 1.1-.4 1.4-2.7 1.6-5 3.8-6.6 6.6-.2.1-.5.3-.9.3zm-7.2-6.4l6.9 4c1.5-2.4 3.6-4.4 5.9-5.9l-4-6.9c-3.5 2.2-6.6 5.3-8.8 8.8z"/><path class="st5" d="M46 65H36c-.6 0-1-.4-1-1 0-5.3 1.4-10.4 4-15 .3-.5.9-.6 1.4-.4l8.7 5c.5.3.6.9.4 1.4-1.6 2.7-2.4 5.8-2.4 9-.1.6-.5 1-1.1 1zm-9-2h8c.1-2.8.9-5.6 2.2-8.1l-6.9-4c-2 3.7-3.2 7.9-3.3 12.1z"/><path class="st5" d="M39.9 79.5c-.4 0-.7-.2-.9-.5-2.6-4.6-4-9.7-4-15 0-.6.4-1 1-1h10c.6 0 1 .4 1 1 0 3.2.8 6.3 2.4 9 .3.5.1 1.1-.4 1.4l-8.7 5c-.1 0-.3.1-.4.1zM37 65c.1 4.2 1.3 8.4 3.3 12.1l6.9-4c-1.3-2.5-2-5.3-2.2-8.1h-8z"/><path class="st5" d="M50.5 90.1c-.2 0-.3 0-.5-.1-4.6-2.6-8.4-6.4-11-11-.3-.5-.1-1.1.4-1.4h.1l8.6-5c.5-.3 1.1-.1 1.4.4 1.6 2.7 3.9 5 6.6 6.6.5.3.7.9.4 1.4v.1l-5 8.6c-.1.2-.2.3-.4.4h-.6zm-9.2-11.2c2.3 3.6 5.3 6.6 8.9 8.9l4-6.9c-2.4-1.5-4.4-3.6-5.9-5.9l-7 3.9zM79.5 90.1c-.4 0-.7-.2-.9-.6l-5-8.6c-.3-.5-.1-1.1.4-1.4 2.7-1.6 5-3.8 6.6-6.6.3-.5.9-.6 1.4-.4h.1l8.5 4.9c.5.2.8.8.5 1.3v.1c-2.6 4.6-6.4 8.4-11 11-.3.3-.4.3-.6.3zm-3.7-9.3l4 6.9c3.6-2.3 6.6-5.3 8.9-8.9l-6.9-4c-1.5 2.4-3.6 4.5-6 6z"/><path class="st5" d="M90.1 79.5c-.2 0-.4 0-.5-.1l-8.7-5c-.1 0-.1-.1-.2-.2-.3-.3-.4-.8-.2-1.2 1.6-2.7 2.4-5.8 2.4-9 0-.6.4-1 1-1h10c.6 0 1 .4 1 1 0 5.3-1.4 10.4-4 15-.1.3-.4.5-.8.5zm-7.3-6.4l6.9 4c2-3.7 3.1-7.9 3.3-12.1h-8c-.1 2.8-.9 5.6-2.2 8.1z"/><path class="st5" d="M94 65H84c-.6 0-1-.4-1-1 0-3.2-.8-6.3-2.4-9-.2-.4-.2-.9.2-1.2l.2-.2 8.7-5c.5-.3 1.1-.1 1.4.4 2.6 4.6 4 9.7 4 15-.1.6-.5 1-1.1 1zm-9-2h8c-.1-4.2-1.3-8.4-3.2-12.1l-6.9 4c1.2 2.5 2 5.3 2.1 8.1z"/><path class="st5" d="M81.4 55.5h-.1c-.3 0-.6-.2-.7-.5-1.6-2.7-3.8-5-6.6-6.6-.5-.3-.7-.9-.4-1.4v-.1l5-8.6c.3-.5.9-.7 1.4-.4 4.6 2.6 8.4 6.4 11 11 .3.5.1 1.1-.4 1.4h-.1l-8.5 5c-.2.2-.4.2-.6.2zm-5.6-8.3c2.4 1.5 4.4 3.6 5.9 6l6.9-4c-2.3-3.6-5.3-6.6-8.9-8.9l-3.9 6.9z"/><path class="st5" d="M74.5 48.5c-.2 0-.3 0-.5-.1-2.7-1.6-5.8-2.4-9-2.4-.6 0-1-.4-1-1V35c0-.6.4-1 1-1 5.3 0 10.4 1.4 15 4 .3.2.5.5.5.9 0 .2 0 .3-.1.5l-5 8.7c-.2.2-.5.4-.9.4zM66 44c2.8.1 5.6.9 8.1 2.2l4-6.9c-3.7-2-7.9-3.1-12.1-3.2V44z"/><path class="st5" d="M55.5 48.5c-.4 0-.7-.2-.9-.5l-5-8.7c-.1-.2-.1-.3-.1-.5 0-.4.2-.7.5-.9 4.6-2.6 9.7-4 15-4 .6 0 1 .4 1 1v10c0 .6-.4 1-1 1-3.2 0-6.3.8-9 2.4-.2.2-.3.3-.5.2zm-3.6-9.2l4 6.9c2.5-1.3 5.3-2.1 8.1-2.2v-8c-4.2.2-8.4 1.3-12.1 3.3z"/><g class="st0"><path class="st14" d="M65 57c-5 0-9 4-9 9s4 9 9 9 9-4 9-9-4-9-9-9z"/></g><circle class="st6" cx="65" cy="64" r="8"/><path class="st5" d="M65 73c-5 0-9-4-9-9s4-9 9-9 9 4 9 9-4 9-9 9zm0-16c-3.9 0-7 3.1-7 7s3.1 7 7 7 7-3.1 7-7-3.1-7-7-7z"/><path class="st4" d="M80.8 77.8L67.3 61l-5.5 5.8 17.6 12.4c.5.3 1.1.2 1.4-.2.3-.4.3-.8 0-1.2z"/><path class="st5" d="M60.9 66.9c0-.3.1-.5.3-.7l5.5-5.8c.4-.4 1-.4 1.4 0l.1.1 13.4 16.8c.7.9.5 2.1-.3 2.8-.7.6-1.7.6-2.4.1L61.3 67.7c-.3-.2-.4-.4-.4-.8zm6.4-4.3l-3.9 4.1L80 78.4 67.3 62.6zm13.5 15.2z"/><circle class="st2" cx="65" cy="64" r="4"/><path class="st5" d="M65 69c-2.8 0-5-2.2-5-5s2.2-5 5-5 5 2.2 5 5c0 1.3-.5 2.6-1.5 3.5-.9 1-2.2 1.5-3.5 1.5zm0-8c-1.7 0-3 1.3-3 3 0 .8.3 1.6.9 2.1 1.2 1.1 3.1 1.1 4.2 0 1.2-1.2 1.2-3.1 0-4.2-.5-.6-1.3-.9-2.1-.9z"/><g class="st0"><path class="st14" d="M65 33c18.6 0 33.9 14.5 34.9 33 0-.7.1-1.3.1-2 0-19.3-15.7-35-35-35S30 44.7 30 64c0 .7 0 1.3.1 2 1-18.5 16.3-33 34.9-33z"/></g><g class="st0"><path class="st4" d="M65 29c-19.3 0-35 15.7-35 35 0 5.1 1.1 10.1 3.2 14.7l63.2-30C90.6 36.6 78.4 29 65 29z"/></g><g class="st0"><path class="st4" d="M35.6 83l62.7-29.8c-.3-.9-.6-1.7-.9-2.6l-63.2 30c.5.9.9 1.6 1.4 2.4z"/></g><path class="st5" d="M65 100c-19.9 0-36-16.1-36-36s16.1-36 36-36 36 16.1 36 36-16.1 36-36 36zm0-70c-18.8 0-34 15.2-34 34s15.2 34 34 34 34-15.2 34-34-15.2-34-34-34z"/><path class="st4" d="M65 26c22.4 0 40.9 17.6 41.9 40 0-.7.1-1.3.1-2 0-23.2-18.8-42-42-42S23 40.8 23 64v2c1.1-22.4 19.6-40 42-40z"/><g class="st0"><path class="st3" d="M65 102c-22.4 0-40.9-17.6-42-40v2c0 23.2 18.8 42 42 42s42-18.8 42-42c0-.7 0-1.3-.1-2-1 22.4-19.5 40-41.9 40z"/></g><path class="st5" d="M65 107c-23.7 0-43-19.3-43-43s19.3-43 43-43 43 19.3 43 43-19.3 43-43 43zm0-84c-22.6 0-41 18.4-41 41s18.4 41 41 41 41-18.4 41-41-18.4-41-41-41z"/><path class="st4" d="M59 84h12c.6 0 1 .4 1 1v6c0 .6-.4 1-1 1H59c-.6 0-1-.4-1-1v-6c0-.6.4-1 1-1z"/><path class="st5" d="M71 93H59c-1.1 0-2-.9-2-2v-6c0-1.1.9-2 2-2h12c1.1 0 2 .9 2 2v6c0 1.1-.9 2-2 2zm-12-8v6h12v-6H59z"/><path d="M68 89h-6c-.6 0-1-.4-1-1s.4-1 1-1h6c.6 0 1 .4 1 1s-.4 1-1 1z" fill="#b6b6d4"/><path class="st16" d="M24.8 38.9H20c-.5 0-1-.4-1-1 0-.5.4-1 1-1h4.8c.5 0 1 .4 1 1-.1.6-.5 1-1 1zM22.8 44.7H12.2c-.5 0-1-.4-1-1s.4-1 1-1h10.6c.5 0 1 .4 1 1s-.4 1-1 1zM21 51h-3c-.6 0-1-.4-1-1s.4-1 1-1h3c.6 0 1 .4 1 1s-.4 1-1 1zM13.2 50.5h-1c-.5 0-1-.4-1-1 0-.5.4-1 1-1h1c.5 0 1 .4 1 1s-.5 1-1 1zM19 57h-6c-.6 0-1-.4-1-1s.4-1 1-1h6c.6 0 1 .4 1 1s-.4 1-1 1zM19 63H6c-.6 0-1-.4-1-1s.4-1 1-1h13c.6 0 1 .4 1 1s-.4 1-1 1zM9 69H8c-.6 0-1-.4-1-1s.4-1 1-1h1c.6 0 1 .4 1 1s-.4 1-1 1zM19 69h-6c-.6 0-1-.4-1-1s.4-1 1-1h6c.6 0 1 .4 1 1s-.4 1-1 1zM19 75h-7c-.6 0-1-.4-1-1s.4-1 1-1h7c.6 0 1 .4 1 1s-.4 1-1 1zM21 81h-2c-.6 0-1-.4-1-1s.4-1 1-1h2c.6 0 1 .4 1 1s-.4 1-1 1zM15 81h-5c-.6 0-1-.4-1-1s.4-1 1-1h5c.6 0 1 .4 1 1s-.4 1-1 1zM24 87h-6c-.6 0-1-.4-1-1s.4-1 1-1h6c.6 0 1 .4 1 1s-.4 1-1 1zM29 93h-4c-.6 0-1-.4-1-1s.4-1 1-1h4c.6 0 1 .4 1 1s-.4 1-1 1z"/></svg>