<svg data-name="2" id="_002" viewBox="0 0 128 128" xmlns="http://www.w3.org/2000/svg"><defs><style>.cls-1{opacity:.3}.cls-2{fill:#d6b5b0}.cls-3{fill:#ffd599}.cls-4{fill:#fff}.cls-5{fill:#6d6daa}.cls-6{fill:#eef6ff}.cls-10{fill:#fff27d}.cls-11{opacity:.5}.cls-12{fill:#f7a706}.cls-13{fill:#ff9797}.cls-15{fill:#939fc6}.cls-16{fill:#96d7ff}.cls-17{fill:#c9c1f5}.cls-19{fill:#4f649e}.cls-20{fill:#7690a8}.cls-21{fill:#b1f1a8}.cls-23{fill:#48bc33}.cls-26{fill:#554dad}.cls-27{fill:#d4edff}.cls-28{fill:#1c64ba}.cls-29{opacity:.4}</style></defs><g class="cls-1"><path class="cls-2" d="M116 50a39 39 0 00-58.92-39.5c-10.3 6.35-28.93-1.86-40.58 9.8S19.5 35 18 46 4.25 65.63 1.39 77.12a30.75 30.75 0 0044.17 34.58c7.61-4 17-2.68 22.64 3.84a33.75 33.75 0 0053.4-41.1A33.63 33.63 0 01116 50z"/><path class="cls-3" d="M3 5v50L53 5zm9 9h19.27L12 33.27z"/><g class="cls-1"><path class="cls-4" d="M53 5H3v4h46l4-4z"/></g><path class="cls-5" d="M3 56a1 1 0 01-1-1V5a1 1 0 011-1h50a1 1 0 01.71 1.71l-50 50A1 1 0 013 56zM4 6v46.59L50.59 6zm8 28.27a1 1 0 01-1-1V14a1 1 0 011-1h19.27a1 1 0 01.73 1.71L12.71 34a1 1 0 01-.71.27zM13 15v15.86L28.86 15z"/><path class="cls-5" d="M7 8a1 1 0 01-1-1V5a1 1 0 012 0v2a1 1 0 01-1 1zM11 7a1 1 0 01-1-1V5a1 1 0 012 0v1a1 1 0 01-1 1zM15 8a1 1 0 01-1-1V5a1 1 0 012 0v2a1 1 0 01-1 1zM19 7a1 1 0 01-1-1V5a1 1 0 012 0v1a1 1 0 01-1 1zM23 8a1 1 0 01-1-1V5a1 1 0 012 0v2a1 1 0 01-1 1zM27 7a1 1 0 01-1-1V5a1 1 0 012 0v1a1 1 0 01-1 1zM31 8a1 1 0 01-1-1V5a1 1 0 012 0v2a1 1 0 01-1 1zM35 7a1 1 0 01-1-1V5a1 1 0 012 0v1a1 1 0 01-1 1zM39 8a1 1 0 01-1-1V5a1 1 0 012 0v2a1 1 0 01-1 1zM43 7a1 1 0 01-1-1V5a1 1 0 012 0v1a1 1 0 01-1 1zM47 8a1 1 0 01-1-1V5a1 1 0 012 0v2a1 1 0 01-1 1z"/><path class="cls-3" d="M67 90h56v9H67z"/><g class="cls-1"><path class="cls-4" d="M67 90h56v4H67z"/></g><path class="cls-5" d="M123 100H67a1 1 0 01-1-1v-9a1 1 0 011-1h56a1 1 0 011 1v9a1 1 0 01-1 1zm-55-2h54v-7H68z"/><path class="cls-5" d="M71 93a1 1 0 01-1-1v-2a1 1 0 012 0v2a1 1 0 01-1 1zM75 92a1 1 0 01-1-1v-1a1 1 0 012 0v1a1 1 0 01-1 1zM79 93a1 1 0 01-1-1v-2a1 1 0 012 0v2a1 1 0 01-1 1zM83 92a1 1 0 01-1-1v-1a1 1 0 012 0v1a1 1 0 01-1 1zM87 93a1 1 0 01-1-1v-2a1 1 0 012 0v2a1 1 0 01-1 1zM91 92a1 1 0 01-1-1v-1a1 1 0 012 0v1a1 1 0 01-1 1zM95 93a1 1 0 01-1-1v-2a1 1 0 012 0v2a1 1 0 01-1 1zM99 92a1 1 0 01-1-1v-1a1 1 0 012 0v1a1 1 0 01-1 1zM103 93a1 1 0 01-1-1v-2a1 1 0 012 0v2a1 1 0 01-1 1zM107 92a1 1 0 01-1-1v-1a1 1 0 012 0v1a1 1 0 01-1 1zM115 92a1 1 0 01-1-1v-1a1 1 0 012 0v1a1 1 0 01-1 1zM111 93a1 1 0 01-1-1v-2a1 1 0 012 0v2a1 1 0 01-1 1zM119 93a1 1 0 01-1-1v-2a1 1 0 012 0v2a1 1 0 01-1 1z"/><path class="cls-6" d="M125 125h-2l-2-1-2 1-2-1-2 1-2-1-2 1-2-1-2 1h-2v-2l1-2-1-2 1-2-1-2 1-2-1-2 1-2-1-2v-2h2l2 1 2-1 2 1 2-1 2 1 2-1 2 1 2-1h2v2l-1 2 1 2-1 2 1 2-1 2 1 2-1 2 1 2v2z"/><path class="cls-5" d="M119 126a1 1 0 01-.45-.11l-1.55-.78-1.55.78a1 1 0 01-.89 0l-1.55-.78-1.55.78a1 1 0 01-.89 0l-1.55-.78-1.55.78a1 1 0 01-.45.11h-2a1 1 0 01-1-1v-2a1 1 0 01.11-.45l.78-1.55-.78-1.55a1 1 0 010-.89l.78-1.55-.78-1.55a1 1 0 010-.89l.78-1.55-.78-1.55a1 1 0 010-.89l.78-1.55-.78-1.55a1 1 0 01-.13-.48v-2a1 1 0 011-1h2a1 1 0 01.45.11l1.55.78 1.55-.78a1 1 0 01.89 0l1.55.78 1.55-.78a1 1 0 01.89 0l1.55.78 1.55-.78a1 1 0 01.89 0l1.55.78 1.55-.78a1 1 0 01.48-.11h2a1 1 0 011 1v2a1 1 0 01-.11.45l-.78 1.55.78 1.55a1 1 0 010 .89l-.78 1.55.78 1.55a1 1 0 010 .89l-.78 1.55.78 1.55a1 1 0 010 .89l-.78 1.55.78 1.55a1 1 0 01.11.45v2a1 1 0 01-1 1h-2a1 1 0 01-.45-.11l-1.55-.78-1.55.78a1 1 0 01-.45.14zm4.24-2h.76v-.76l-.89-1.79a1 1 0 010-.89l.78-1.55-.78-1.55a1 1 0 010-.89l.78-1.55-.78-1.55a1 1 0 010-.89l.78-1.55-.78-1.55a1 1 0 010-.89l.89-1.79v-.8h-.76l-1.79.89a1 1 0 01-.89 0l-1.55-.78-1.55.78a1 1 0 01-.89 0l-1.55-.78-1.55.78a1 1 0 01-.89 0l-1.55-.78-1.55.78a1 1 0 01-.89 0l-1.79-.89h-.8v.76l.89 1.79a1 1 0 010 .89l-.78 1.55.78 1.55a1 1 0 010 .89l-.78 1.55.78 1.55a1 1 0 010 .89l-.78 1.55.78 1.55a1 1 0 010 .89l-.89 1.79v.8h.76l1.79-.89a1 1 0 01.89 0l1.55.78 1.55-.78a1 1 0 01.89 0l1.55.78 1.55-.78a1 1 0 01.89 0l1.55.78 1.55-.78a1 1 0 01.89 0z"/><path fill="#80d880" d="M110 110h10v10h-10z"/><path class="cls-5" d="M120 121h-10a1 1 0 01-1-1v-10a1 1 0 011-1h10a1 1 0 011 1v10a1 1 0 01-1 1zm-9-2h8v-8h-8z"/><path class="cls-4" d="M45 61v-8h8l-8 8z"/><path fill="#fff2cc" d="M45 61H19V27h34v26h-8v8z"/><path fill="#c1a29f" d="M19 27h34v5H19z"/><path class="cls-5" d="M45 62a1 1 0 01-1-1v-8a1 1 0 011-1h8a1 1 0 01.71 1.71l-8 8A1 1 0 0145 62zm1-8v4.59L50.59 54z"/><path class="cls-5" d="M45 62H19a1 1 0 01-1-1V27a1 1 0 011-1h34a1 1 0 011 1v26a1 1 0 01-1 1h-7v7a1 1 0 01-1 1zm-25-2h24v-7a1 1 0 011-1h7V28H20z"/><path class="cls-2" d="M85 116l-3 7-3-7 3-2 3 2z"/><path class="cls-5" d="M82 124a1 1 0 01-.92-.61l-3-7a1 1 0 01.36-1.23l3-2a1 1 0 011.11 0l3 2a1 1 0 01.36 1.23l-3 7a1 1 0 01-.91.61zm-1.75-7.63l1.75 4.09 1.75-4.09L82 115.2z"/><path class="cls-10" d="M85 78v38l-3-2-3 2V78h6z"/><g class="cls-11"><path class="cls-12" d="M82 78v36l1.5 1 1.5-1V78h-3z"/></g><path class="cls-5" d="M85 117a1 1 0 01-.55-.17L82 115.2l-2.45 1.63A1 1 0 0178 116V78a1 1 0 011-1h6a1 1 0 011 1v38a1 1 0 01-1 1zm-3-4a1 1 0 01.55.17l1.45 1V79h-4v35.13l1.45-1A1 1 0 0182 113z"/><path class="cls-6" d="M79 74h6v4h-6z"/><path class="cls-5" d="M85 79h-6a1 1 0 01-1-1v-4a1 1 0 011-1h6a1 1 0 011 1v4a1 1 0 01-1 1zm-5-2h4v-2h-4z"/><path class="cls-13" d="M85 70v4h-6v-4a3 3 0 013-3 3 3 0 013 3z"/><path d="M82 67a3 3 0 00-3 3v3a3 3 0 016 0v-3a3 3 0 00-3-3z" fill="#fff9e0"/><path class="cls-5" d="M85 75h-6a1 1 0 01-1-1v-4a4 4 0 018 0v4a1 1 0 01-1 1zm-5-2h4v-3a2 2 0 00-4 0z"/><path class="cls-15" d="M71 72v12h-6V72a2 2 0 012-2h2a2 2 0 012 2z"/><path class="cls-6" d="M71 115l-2 6h-2l-2-6h6z"/><path class="cls-4" d="M68 115h-3l2 6h1v-6z"/><path class="cls-5" d="M69 122h-2a1 1 0 01-.95-.68l-2-6A1 1 0 0165 114h6a1 1 0 01.95 1.32l-2 6a1 1 0 01-.95.68zm-1.28-2h.56l1.33-4h-3.22z"/><path class="cls-15" d="M71 84h-6v13l1 3-1 3v12h6v-12l-1-3 1-3V84z"/><g class="cls-1"><path class="cls-4" d="M68 97V70h-1a2 2 0 00-2 2v25l1 3-1 3v12h3V97z"/></g><path class="cls-5" d="M71 85h-6a1 1 0 01-1-1V72a3 3 0 013-3h2a3 3 0 013 3v12a1 1 0 01-1 1zm-5-2h4V72a1 1 0 00-1-1h-2a1 1 0 00-1 1zM71 116h-6a1 1 0 01-1-1v-12a1 1 0 011-1h6a1 1 0 011 1v12a1 1 0 01-1 1zm-5-2h4v-10h-4z"/><path class="cls-5" d="M71 112h-6a1 1 0 010-2h6a1 1 0 010 2zM71 108h-6a1 1 0 010-2h6a1 1 0 010 2zM71 98h-6a1 1 0 01-1-1V84a1 1 0 011-1h6a1 1 0 011 1v13a1 1 0 01-1 1zm-5-2h4V85h-4zM71 104h-6a1 1 0 01-.95-1.32l1-3A1 1 0 0166 99h4a1 1 0 01.95.68l1 3A1 1 0 0171 104zm-4.61-2h3.23l-.33-1h-2.57z"/><path class="cls-5" d="M70 101h-4a1 1 0 01-.95-.68l-1-3A1 1 0 0165 96h6a1 1 0 01.95 1.32l-1 3a1 1 0 01-.95.68zm-3.28-2h2.56l.33-1h-3.22zM68 124a1 1 0 01-1-1v-2a1 1 0 012 0v2a1 1 0 01-1 1zM74 86a1 1 0 01-1-1V75h-3a1 1 0 010-2h4a1 1 0 011 1v11a1 1 0 01-1 1z"/><path class="cls-6" d="M67 67h2v3h-2z"/><path class="cls-5" d="M69 71h-2a1 1 0 01-1-1v-3a1 1 0 011-1h2a1 1 0 011 1v3a1 1 0 01-1 1zm-1-2z"/><path class="cls-16" d="M100 72h7v8h-7z"/><path class="cls-5" d="M107 81h-7a1 1 0 01-1-1v-8a1 1 0 011-1h7a1 1 0 011 1v8a1 1 0 01-1 1zm-6-2h5v-6h-5z"/><path class="cls-4" d="M95 72h5v8h-5z"/><path class="cls-5" d="M100 81h-5a1 1 0 01-1-1v-8a1 1 0 011-1h5a1 1 0 011 1v8a1 1 0 01-1 1zm-4-2h3v-6h-3z"/><path class="cls-4" d="M107 72h4v8h-4z"/><path class="cls-5" d="M111 81h-4a1 1 0 01-1-1v-8a1 1 0 011-1h4a1 1 0 011 1v8a1 1 0 01-1 1zm-3-2h2v-6h-2z"/><path class="cls-17" d="M59 7h10v41H59z"/><g class="cls-1"><path class="cls-4" d="M59 7h3v41h-3z"/></g><path fill="#5b58bc" d="M66 7h3v41h-3z"/><path class="cls-5" d="M69 49H59a1 1 0 01-1-1V7a1 1 0 011-1h10a1 1 0 011 1v41a1 1 0 01-1 1zm-9-2h8V8h-8z"/><path class="cls-15" d="M67 53h-6l-2-5h10l-2 5z"/><path class="cls-5" d="M67 54h-6a1 1 0 01-.93-.63l-2-5A1 1 0 0159 47h10a1 1 0 01.93 1.37l-2 5A1 1 0 0167 54zm-5.32-2h4.65l1.2-3h-7z"/><path class="cls-17" d="M66 59l-4-2v-4h4v6z"/><path class="cls-5" d="M66 60a1 1 0 01-.45-.11l-4-2A1 1 0 0161 57v-4a1 1 0 011-1h4a1 1 0 011 1v6a1 1 0 01-1 1zm-3-3.62l2 1V54h-2z"/><path class="cls-15" d="M60 3h8v4h-8z"/><g class="cls-1"><path class="cls-4" d="M60 3h3v4h-3z"/></g><g class="cls-1"><path class="cls-19" d="M65 3h3v4h-3z"/></g><path class="cls-5" d="M68 8h-8a1 1 0 01-1-1V3a1 1 0 011-1h8a1 1 0 011 1v4a1 1 0 01-1 1zm-7-2h6V4h-6z"/><path class="cls-6" d="M15 67h8v56h-8z"/><path class="cls-4" d="M15 67h3v56h-3z"/><path class="cls-16" d="M15 67h8v4h-8zM15 119h8v4h-8z"/><g class="cls-1"><path class="cls-4" d="M15 67h3v56h-3z"/></g><g class="cls-1"><path class="cls-20" d="M20 67h3v56h-3z"/></g><path class="cls-5" d="M23 110h-8a1 1 0 01-1-1V81a1 1 0 011-1h8a1 1 0 011 1v28a1 1 0 01-1 1zm-7-2h6V82h-6z"/><path class="cls-5" d="M23 82h-8a1 1 0 01-1-1V67a1 1 0 011-1h8a1 1 0 011 1v14a1 1 0 01-1 1zm-7-2h6V68h-6zM23 124h-8a1 1 0 01-1-1v-14a1 1 0 011-1h8a1 1 0 011 1v14a1 1 0 01-1 1zm-7-2h6v-12h-6z"/><path class="cls-6" d="M27 67h8v56h-8z"/><path class="cls-4" d="M27 67h3v56h-3z"/><path class="cls-21" d="M27 67h8v4h-8zM27 119h8v4h-8z"/><g class="cls-1"><path class="cls-4" d="M27 67h3v56h-3z"/></g><g class="cls-1"><path class="cls-20" d="M32 67h3v56h-3z"/></g><path class="cls-5" d="M35 110h-8a1 1 0 01-1-1V81a1 1 0 011-1h8a1 1 0 011 1v28a1 1 0 01-1 1zm-7-2h6V82h-6z"/><path class="cls-5" d="M35 82h-8a1 1 0 01-1-1V67a1 1 0 011-1h8a1 1 0 011 1v14a1 1 0 01-1 1zm-7-2h6V68h-6zM35 124h-8a1 1 0 01-1-1v-14a1 1 0 011-1h8a1 1 0 011 1v14a1 1 0 01-1 1zm-7-2h6v-12h-6z"/><path class="cls-6" d="M39 67h8v56h-8z"/><path class="cls-4" d="M39 67h3v56h-3z"/><path class="cls-13" d="M39 67h8v4h-8zM39 119h8v4h-8z"/><g class="cls-1"><path class="cls-4" d="M39 67h3v56h-3z"/></g><g class="cls-1"><path class="cls-20" d="M44 67h3v56h-3z"/></g><path class="cls-5" d="M47 110h-8a1 1 0 01-1-1V81a1 1 0 011-1h8a1 1 0 011 1v28a1 1 0 01-1 1zm-7-2h6V82h-6z"/><path class="cls-5" d="M47 82h-8a1 1 0 01-1-1V67a1 1 0 011-1h8a1 1 0 011 1v14a1 1 0 01-1 1zm-7-2h6V68h-6zM47 124h-8a1 1 0 01-1-1v-14a1 1 0 011-1h8a1 1 0 011 1v14a1 1 0 01-1 1zm-7-2h6v-12h-6z"/><path class="cls-6" d="M51 67h8v56h-8z"/><path class="cls-4" d="M51 67h3v56h-3z"/><path class="cls-10" d="M51 67h8v4h-8zM51 119h8v4h-8z"/><g class="cls-1"><path class="cls-4" d="M51 67h3v56h-3z"/></g><g class="cls-1"><path class="cls-20" d="M56 67h3v56h-3z"/></g><path class="cls-5" d="M59 110h-8a1 1 0 01-1-1V81a1 1 0 011-1h8a1 1 0 011 1v28a1 1 0 01-1 1zm-7-2h6V82h-6z"/><path class="cls-5" d="M59 82h-8a1 1 0 01-1-1V67a1 1 0 011-1h8a1 1 0 011 1v14a1 1 0 01-1 1zm-7-2h6V68h-6zM59 124h-8a1 1 0 01-1-1v-14a1 1 0 011-1h8a1 1 0 011 1v14a1 1 0 01-1 1zm-7-2h6v-12h-6z"/><path class="cls-16" d="M73 7h10v41H73z"/><g class="cls-1"><path class="cls-4" d="M73 7h3v41h-3z"/></g><path fill="#0070b8" d="M80 7h3v41h-3z"/><path class="cls-5" d="M83 49H73a1 1 0 01-1-1V7a1 1 0 011-1h10a1 1 0 011 1v41a1 1 0 01-1 1zm-9-2h8V8h-8z"/><path class="cls-15" d="M81 53h-6l-2-5h10l-2 5z"/><path class="cls-5" d="M81 54h-6a1 1 0 01-.93-.63l-2-5A1 1 0 0173 47h10a1 1 0 01.93 1.37l-2 5A1 1 0 0181 54zm-5.32-2h4.65l1.2-3h-7z"/><path class="cls-16" d="M80 59l-4-2v-4h4v6z"/><path class="cls-5" d="M80 60a1 1 0 01-.45-.11l-4-2A1 1 0 0175 57v-4a1 1 0 011-1h4a1 1 0 011 1v6a1 1 0 01-1 1zm-3-3.62l2 1V54h-2z"/><path class="cls-15" d="M74 3h8v4h-8z"/><g class="cls-1"><path class="cls-4" d="M74 3h3v4h-3z"/></g><g class="cls-1"><path class="cls-19" d="M79 3h3v4h-3z"/></g><path class="cls-5" d="M82 8h-8a1 1 0 01-1-1V3a1 1 0 011-1h8a1 1 0 011 1v4a1 1 0 01-1 1zm-7-2h6V4h-6z"/><path class="cls-21" d="M87 7h10v41H87z"/><g class="cls-1"><path class="cls-4" d="M87 7h3v41h-3z"/></g><g class="cls-1"><path class="cls-23" d="M94 7h3v41h-3z"/></g><path class="cls-5" d="M97 49H87a1 1 0 01-1-1V7a1 1 0 011-1h10a1 1 0 011 1v41a1 1 0 01-1 1zm-9-2h8V8h-8z"/><path class="cls-15" d="M95 53h-6l-2-5h10l-2 5z"/><path class="cls-5" d="M95 54h-6a1 1 0 01-.93-.63l-2-5A1 1 0 0187 47h10a1 1 0 01.93 1.37l-2 5A1 1 0 0195 54zm-5.32-2h4.65l1.2-3h-7z"/><path class="cls-21" d="M94 59l-4-2v-4h4v6z"/><path class="cls-5" d="M94 60a1 1 0 01-.45-.11l-4-2A1 1 0 0189 57v-4a1 1 0 011-1h4a1 1 0 011 1v6a1 1 0 01-1 1zm-3-3.62l2 1V54h-2z"/><path class="cls-15" d="M88 3h8v4h-8z"/><g class="cls-1"><path class="cls-4" d="M88 3h3v4h-3z"/></g><g class="cls-1"><path class="cls-19" d="M93 3h3v4h-3z"/></g><path class="cls-5" d="M96 8h-8a1 1 0 01-1-1V3a1 1 0 011-1h8a1 1 0 011 1v4a1 1 0 01-1 1zm-7-2h6V4h-6z"/><path class="cls-13" d="M101 7h10v41h-10z"/><g class="cls-1"><path class="cls-4" d="M101 7h3v41h-3z"/></g><path fill="#db4962" d="M108 7h3v41h-3z"/><path class="cls-5" d="M111 49h-10a1 1 0 01-1-1V7a1 1 0 011-1h10a1 1 0 011 1v41a1 1 0 01-1 1zm-9-2h8V8h-8z"/><path class="cls-15" d="M109 53h-6l-2-5h10l-2 5z"/><path class="cls-5" d="M109 54h-6a1 1 0 01-.93-.63l-2-5A1 1 0 01101 47h10a1 1 0 01.93 1.37l-2 5a1 1 0 01-.93.63zm-5.32-2h4.65l1.2-3h-7z"/><path class="cls-13" d="M108 59l-4-2v-4h4v6z"/><path class="cls-5" d="M108 60a1 1 0 01-.45-.11l-4-2A1 1 0 01103 57v-4a1 1 0 011-1h4a1 1 0 011 1v6a1 1 0 01-1 1zm-3-3.62l2 1V54h-2z"/><path class="cls-15" d="M102 3h8v4h-8z"/><g class="cls-1"><path class="cls-4" d="M102 3h3v4h-3z"/></g><g class="cls-1"><path class="cls-19" d="M107 3h3v4h-3z"/></g><path class="cls-5" d="M110 8h-8a1 1 0 01-1-1V3a1 1 0 011-1h8a1 1 0 011 1v4a1 1 0 01-1 1zm-7-2h6V4h-6z"/><path class="cls-10" d="M115 7h10v41h-10z"/><path class="cls-4" d="M115 7h3v41h-3z" opacity=".75"/><g class="cls-11"><path class="cls-12" d="M122 7h3v41h-3z"/></g><path class="cls-5" d="M125 49h-10a1 1 0 01-1-1V7a1 1 0 011-1h10a1 1 0 011 1v41a1 1 0 01-1 1zm-9-2h8V8h-8z"/><path class="cls-15" d="M123 53h-6l-2-5h10l-2 5z"/><path class="cls-5" d="M123 54h-6a1 1 0 01-.93-.63l-2-5A1 1 0 01115 47h10a1 1 0 01.93 1.37l-2 5a1 1 0 01-.93.63zm-5.32-2h4.65l1.2-3h-7z"/><path class="cls-10" d="M122 59l-4-2v-4h4v6z"/><path class="cls-5" d="M122 60a1 1 0 01-.45-.11l-4-2A1 1 0 01117 57v-4a1 1 0 011-1h4a1 1 0 011 1v6a1 1 0 01-1 1zm-3-3.62l2 1V54h-2z"/><path class="cls-15" d="M116 3h8v4h-8z"/><g class="cls-1"><path class="cls-4" d="M116 3h3v4h-3z"/></g><g class="cls-1"><path class="cls-19" d="M121 3h3v4h-3z"/></g><path class="cls-5" d="M124 8h-8a1 1 0 01-1-1V3a1 1 0 011-1h8a1 1 0 011 1v4a1 1 0 01-1 1zm-7-2h6V4h-6z"/><path class="cls-6" d="M3 67h8v56H3z"/><path class="cls-4" d="M3 67h3v56H3z"/><path class="cls-17" d="M3 67h8v4H3zM3 119h8v4H3z"/><g class="cls-1"><path class="cls-4" d="M3 67h3v56H3z"/></g><g class="cls-1"><path class="cls-20" d="M8 67h3v56H8z"/></g><path class="cls-5" d="M11 110H3a1 1 0 01-1-1V81a1 1 0 011-1h8a1 1 0 011 1v28a1 1 0 01-1 1zm-7-2h6V82H4z"/><path class="cls-5" d="M11 82H3a1 1 0 01-1-1V67a1 1 0 011-1h8a1 1 0 011 1v14a1 1 0 01-1 1zm-7-2h6V68H4zM11 124H3a1 1 0 01-1-1v-14a1 1 0 011-1h8a1 1 0 011 1v14a1 1 0 01-1 1zm-7-2h6v-12H4z"/></g><path class="cls-17" d="M101 105H37a12 12 0 01-12-12 12 12 0 0112-12h64a4 4 0 014 4v16a4 4 0 01-4 4z"/><g class="cls-1"><path class="cls-26" d="M101 101H37a12 12 0 01-11.82-10A11.93 11.93 0 0037 105h64a4 4 0 004-4v-4a4 4 0 01-4 4z"/></g><g class="cls-1"><path class="cls-5" d="M102 91a3 3 0 113-3 3 3 0 01-3 3zm0-4a1 1 0 101 1 1 1 0 00-1-1zM92 91a3 3 0 113-3 3 3 0 01-3 3zm0-4a1 1 0 101 1 1 1 0 00-1-1zM92 101a3 3 0 113-3 3 3 0 01-3 3zm0-4a1 1 0 101 1 1 1 0 00-1-1zM102 101a3 3 0 113-3 3 3 0 01-3 3zm0-4a1 1 0 101 1 1 1 0 00-1-1zM82 91a3 3 0 113-3 3 3 0 01-3 3zm0-4a1 1 0 101 1 1 1 0 00-1-1zM72 91a3 3 0 113-3 3 3 0 01-3 3zm0-4a1 1 0 101 1 1 1 0 00-1-1zM72 101a3 3 0 113-3 3 3 0 01-3 3zm0-4a1 1 0 101 1 1 1 0 00-1-1zM82 101a3 3 0 113-3 3 3 0 01-3 3zm0-4a1 1 0 101 1 1 1 0 00-1-1zM62 91a3 3 0 113-3 3 3 0 01-3 3zm0-4a1 1 0 101 1 1 1 0 00-1-1zM62 101a3 3 0 113-3 3 3 0 01-3 3zm0-4a1 1 0 101 1 1 1 0 00-1-1zM52 91a3 3 0 113-3 3 3 0 01-3 3zm0-4a1 1 0 101 1 1 1 0 00-1-1zM42 91a3 3 0 113-3 3 3 0 01-3 3zm0-4a1 1 0 101 1 1 1 0 00-1-1zM42 101a3 3 0 113-3 3 3 0 01-3 3zm0-4a1 1 0 101 1 1 1 0 00-1-1zM52 101a3 3 0 113-3 3 3 0 01-3 3zm0-4a1 1 0 101 1 1 1 0 00-1-1zM32 91a3 3 0 113-3 3 3 0 01-3 3zm0-4a1 1 0 101 1 1 1 0 00-1-1zM32 101a3 3 0 113-3 3 3 0 01-3 3zm0-4a1 1 0 101 1 1 1 0 00-1-1zM57 94a1 1 0 01-.38-.08 1 1 0 01-.33-.21l-.12-.15a.76.76 0 01-.09-.18.63.63 0 01-.08-.18 1.32 1.32 0 010-.2 1.05 1.05 0 01.29-.71 1.15 1.15 0 01.33-.21 1 1 0 011.09.21 1 1 0 01.21.33A1 1 0 0158 93a1 1 0 01-.29.71 1.16 1.16 0 01-.33.21A1 1 0 0157 94zM67 94a1 1 0 01-.38-.08 1.16 1.16 0 01-.33-.21l-.12-.15a.76.76 0 01-.09-.18.63.63 0 01-.08-.18 1.32 1.32 0 010-.2 1 1 0 01.08-.38.91.91 0 01.54-.54 1 1 0 011.09.21 1.16 1.16 0 01.21.33A1 1 0 0168 93a1.38 1.38 0 010 .2.65.65 0 01-.06.18.76.76 0 01-.09.18l-.12.15a1 1 0 01-.33.21 1 1 0 01-.4.08zM77 94a1 1 0 01-.38-.08 1.16 1.16 0 01-.33-.21A1 1 0 0176 93a1 1 0 01.08-.38 1 1 0 01.21-.33 1 1 0 011.09-.21 1.16 1.16 0 01.33.21A1.05 1.05 0 0178 93a1.38 1.38 0 010 .2.65.65 0 01-.06.18.76.76 0 01-.09.18l-.12.15a1 1 0 01-.33.21 1 1 0 01-.4.08zM87 94a1 1 0 01-1-1 1 1 0 01.08-.38 1 1 0 01.21-.33 1.48 1.48 0 01.15-.12l.18-.09a.63.63 0 01.18-.08 1 1 0 01.58.06.9.9 0 01.54.54 1 1 0 01.08.4 1.38 1.38 0 010 .2.65.65 0 01-.06.18.76.76 0 01-.09.18 1.59 1.59 0 01-.12.15 1 1 0 01-.33.21 1 1 0 01-.4.08zM97 94h-.2l-.18-.06-.18-.09-.15-.12A1 1 0 0196 93a1 1 0 01.08-.38 1 1 0 01.21-.33 1.48 1.48 0 01.15-.12l.18-.09a.63.63 0 01.18-.08 1 1 0 01.91.27 1 1 0 01.21.33 1 1 0 01.08.4 1.38 1.38 0 010 .2.65.65 0 01-.06.18.76.76 0 01-.09.18l-.12.15a1 1 0 01-.33.21 1 1 0 01-.4.08zM47 94a1 1 0 01-.38-.08 1 1 0 01-.33-.21 1.6 1.6 0 01-.12-.15.76.76 0 01-.09-.18.63.63 0 01-.08-.18 1.32 1.32 0 010-.2 1 1 0 01.08-.38.91.91 0 01.54-.54 1 1 0 01.58-.08.63.63 0 01.18.06.76.76 0 01.18.09 1.6 1.6 0 01.15.12 1 1 0 01.21.33 1 1 0 01.08.4 1 1 0 01-1 1zM37 94a1 1 0 01-.38-.08 1 1 0 01-.33-.21l-.12-.15a.76.76 0 01-.09-.18.63.63 0 01-.08-.18 1.32 1.32 0 010-.2 1 1 0 01.08-.38 1 1 0 01.21-.33 1 1 0 01.91-.29.63.63 0 01.18.06.76.76 0 01.18.09 1.6 1.6 0 01.15.12 1 1 0 01.21.33.84.84 0 01.08.4 1.38 1.38 0 010 .2.65.65 0 01-.06.18.76.76 0 01-.09.18l-.12.15-.15.12a.76.76 0 01-.18.09l-.2.08zM57 84a1.05 1.05 0 01-.71-.29 1.16 1.16 0 01-.21-.33A1 1 0 0156 83a1.05 1.05 0 01.29-.71l.15-.12.18-.09a.63.63 0 01.18-.08.89.89 0 01.4 0 .63.63 0 01.18.06.76.76 0 01.18.09l.15.12A1.05 1.05 0 0158 83a1 1 0 01-.08.38 1.16 1.16 0 01-.21.33l-.15.12a.76.76 0 01-.18.09l-.18.08zM67 84a.84.84 0 01-.38-.08.9.9 0 01-.54-.54A1 1 0 0166 83a1.05 1.05 0 01.29-.71 1.15 1.15 0 01.33-.21 1 1 0 01.58-.08.63.63 0 01.18.06.76.76 0 01.18.09l.15.12A1.05 1.05 0 0168 83a1 1 0 01-.08.38 1.16 1.16 0 01-.21.33A1.05 1.05 0 0167 84zM77 84a.84.84 0 01-.38-.08 1 1 0 01-.33-.21 1.16 1.16 0 01-.21-.33A1 1 0 0176 83a1.05 1.05 0 01.29-.71 1.15 1.15 0 01.33-.21 1 1 0 01.76 0 1.16 1.16 0 01.33.21l.12.15a.77.77 0 01.09.18.65.65 0 01.06.18 1.38 1.38 0 010 .2 1 1 0 01-.08.38 1.16 1.16 0 01-.21.33 1 1 0 01-.33.21.84.84 0 01-.36.08zM87 84a1.05 1.05 0 01-.71-.29 1.16 1.16 0 01-.21-.33A1 1 0 0186 83a1.32 1.32 0 010-.2.63.63 0 01.06-.18.77.77 0 01.09-.18l.12-.15a1 1 0 011.09-.21 1.16 1.16 0 01.33.21A1.05 1.05 0 0188 83a1 1 0 01-.08.38.9.9 0 01-.54.54.84.84 0 01-.38.08zM97 84a1.05 1.05 0 01-.71-.29 1.16 1.16 0 01-.21-.33A1 1 0 0196 83a1.05 1.05 0 01.29-.71l.15-.12.18-.09a.63.63 0 01.18-.08 1 1 0 011.2 1 .84.84 0 01-.08.38 1.16 1.16 0 01-.21.33A1.05 1.05 0 0197 84zM47 84a1.05 1.05 0 01-.71-.29 1.16 1.16 0 01-.21-.33A1 1 0 0146 83a1.05 1.05 0 01.29-.71l.15-.12.18-.09a.63.63 0 01.18-.08 1 1 0 01.58.06 1.16 1.16 0 01.33.21A1.05 1.05 0 0148 83a.84.84 0 01-.08.38.9.9 0 01-.54.54.84.84 0 01-.38.08zM37 84a.84.84 0 01-.38-.08 1 1 0 01-.33-.21 1.16 1.16 0 01-.21-.33A1 1 0 0136 83a1.05 1.05 0 01.29-.71 1.15 1.15 0 01.33-.21 1 1 0 01.76 0 1.16 1.16 0 01.33.21A1.05 1.05 0 0138 83a1 1 0 01-.08.38 1.16 1.16 0 01-.21.33 1 1 0 01-.33.21.84.84 0 01-.38.08zM57 104a1 1 0 01-.38-.08 1 1 0 01-.33-.21 1 1 0 010-1.42 1.15 1.15 0 01.33-.21 1 1 0 01.58-.06.63.63 0 01.18.06.76.76 0 01.18.09 1.6 1.6 0 01.15.12 1 1 0 01.21.33.94.94 0 010 .76 1 1 0 01-.92.62zM67 104a1 1 0 01-.38-.08.9.9 0 01-.54-.54.95.95 0 010-.76.91.91 0 01.54-.54 1 1 0 01.76 0 1 1 0 01.33.21 1 1 0 01-.33 1.63 1 1 0 01-.38.08zM77 104a1 1 0 01-.38-.08 1 1 0 01-.33-.21 1 1 0 010-1.42 1.15 1.15 0 01.33-.21 1 1 0 011.3.54.94.94 0 010 .76.9.9 0 01-.54.54 1 1 0 01-.38.08zM87 104a1 1 0 01-.38-.08.9.9 0 01-.54-.54.95.95 0 010-.76 1 1 0 011.3-.54 1.16 1.16 0 01.33.21 1 1 0 01-.33 1.63 1 1 0 01-.38.08zM97 104a1 1 0 01-.38-.08.9.9 0 01-.54-.54.95.95 0 010-.76.91.91 0 01.54-.54 1 1 0 01.76 0 .9.9 0 01.54.54.94.94 0 010 .76.9.9 0 01-.54.54 1 1 0 01-.38.08zM27 94a1 1 0 01-1-1 1 1 0 01.08-.38 1 1 0 01.21-.33.93.93 0 01.16-.12.56.56 0 01.17-.09.63.63 0 01.18-.08.89.89 0 01.4 0 .63.63 0 01.18.06.55.55 0 01.17.09 1 1 0 01.16.12 1 1 0 01.21.33.84.84 0 01.08.4 1.38 1.38 0 010 .2.65.65 0 01-.06.18.76.76 0 01-.09.18l-.12.15A1 1 0 0127 94zM47 104a1 1 0 01-.38-.08.9.9 0 01-.54-.54.95.95 0 010-.76.91.91 0 01.54-.54 1 1 0 01.76 0 1 1 0 01.33.21 1 1 0 01-.33 1.63 1 1 0 01-.38.08zM37 104a1 1 0 01-.38-.08 1.16 1.16 0 01-.33-.21 1 1 0 010-1.42 1.15 1.15 0 01.33-.21 1 1 0 01.58-.06.63.63 0 01.18.06.76.76 0 01.18.09 1.6 1.6 0 01.15.12 1 1 0 010 1.42 1 1 0 01-.71.29z"/></g><g class="cls-1"><path class="cls-26" d="M37 105h10.11l41.56-24H36.64l-6.17 3.56a12.9 12.9 0 00-5.06 5.31A12 12 0 0037 105z"/></g><g class="cls-1"><path class="cls-26" d="M105 101v-8H25a12 12 0 0012 12h64a4 4 0 004-4z"/></g><g class="cls-1"><path class="cls-26" d="M29 93a12 12 0 0112-12h-4a12 12 0 000 24h4a12 12 0 01-12-12z"/></g><g class="cls-1"><path class="cls-4" d="M105 101V85a4 4 0 00-4-4h-4a4 4 0 014 4v16a4 4 0 01-4 4h4a4 4 0 004-4z"/></g><path class="cls-5" d="M101 106H37a13 13 0 010-26h64a5 5 0 015 5v16a5 5 0 01-5 5zM37 82a11 11 0 000 22h64a3 3 0 003-3V85a3 3 0 00-3-3z"/><circle class="cls-4" cx="37" cy="93" r="6"/><path class="cls-5" d="M37 100a7 7 0 117-7 7 7 0 01-7 7zm0-12a5 5 0 105 5 5 5 0 00-5-5z"/><circle class="cls-27" cx="37" cy="93" r="2"/><path class="cls-5" d="M37 96a3 3 0 113-3 3 3 0 01-3 3zm0-4a1 1 0 101 1 1 1 0 00-1-1z"/><path class="cls-16" d="M98.4 71.23l-55.4 32a12 12 0 01-16.39-4.39A12 12 0 0131 82.44l55.43-32a4 4 0 015.46 1.46l8 13.86a4 4 0 01-1.49 5.47z"/><g class="cls-1"><path class="cls-5" d="M98.51 72.33a1 1 0 01-.87-.51 1.11 1.11 0 00-.69-.54 3.12 3.12 0 01-2.21-3.82 1.12 1.12 0 00-.79-1.37 3.12 3.12 0 01-2.21-3.82 1.12 1.12 0 00-.79-1.37 3.12 3.12 0 01-2.21-3.82 1.12 1.12 0 00-.79-1.37 3.12 3.12 0 01-2.21-3.82 1.12 1.12 0 00-.1-.84 1 1 0 111.75-1 3.1 3.1 0 01.29 2.33 1.12 1.12 0 00.79 1.37 3.12 3.12 0 012.21 3.82 1.12 1.12 0 00.78 1.43 3.12 3.12 0 012.21 3.82 1.12 1.12 0 00.79 1.37A3.12 3.12 0 0196.67 68a1.12 1.12 0 00.79 1.37 3.09 3.09 0 011.92 1.49 1 1 0 01-.87 1.49zM88.11 78.33a1 1 0 01-.87-.51 1.11 1.11 0 00-.69-.54 3.12 3.12 0 01-2.21-3.82 1.12 1.12 0 00-.79-1.37 3.12 3.12 0 01-2.21-3.82 1.12 1.12 0 00-.79-1.37 3.12 3.12 0 01-2.21-3.82 1.12 1.12 0 00-.79-1.37 3.12 3.12 0 01-2.21-3.82 1.11 1.11 0 00-.1-.84 1 1 0 111.75-1 3.1 3.1 0 01.29 2.33 1.12 1.12 0 00.79 1.37 3.12 3.12 0 012.21 3.82 1.12 1.12 0 00.79 1.43 3.12 3.12 0 012.21 3.82 1.12 1.12 0 00.79 1.37A3.12 3.12 0 0186.28 74a1.12 1.12 0 00.79 1.37A3.09 3.09 0 0189 76.84a1 1 0 01-.87 1.49zM77.72 84.33a1 1 0 01-.87-.51 1.11 1.11 0 00-.69-.54A3.12 3.12 0 0174 79.46a1.12 1.12 0 00-.79-1.37A3.12 3.12 0 0171 74.26a1.12 1.12 0 00-.79-1.37A3.12 3.12 0 0168 69.07a1.12 1.12 0 00-.79-1.37A3.12 3.12 0 0165 63.87a1.12 1.12 0 00-.1-.84 1 1 0 111.75-1 3.1 3.1 0 01.29 2.33 1.12 1.12 0 00.79 1.37 3.12 3.12 0 012.21 3.82 1.12 1.12 0 00.74 1.45 3.12 3.12 0 012.21 3.82 1.12 1.12 0 00.79 1.37 3.12 3.12 0 012.2 3.81 1.12 1.12 0 00.79 1.37 3.09 3.09 0 011.92 1.49 1 1 0 01-.87 1.49zM67.33 90.33a1 1 0 01-.87-.51 1.11 1.11 0 00-.69-.54 3.12 3.12 0 01-2.21-3.82 1.12 1.12 0 00-.79-1.37 3.12 3.12 0 01-2.21-3.82 1.12 1.12 0 00-.79-1.37 3.12 3.12 0 01-2.21-3.82 1.12 1.12 0 00-.79-1.37 3.12 3.12 0 01-2.21-3.82 1.12 1.12 0 00-.1-.84 1 1 0 111.75-1 3.1 3.1 0 01.29 2.33 1.12 1.12 0 00.79 1.37 3.12 3.12 0 012.21 3.82 1.12 1.12 0 00.79 1.43 3.12 3.12 0 012.21 3.82 1.12 1.12 0 00.79 1.37 3.12 3.12 0 012.2 3.81 1.12 1.12 0 00.79 1.37 3.1 3.1 0 011.92 1.49 1 1 0 01-.87 1.49zM56.94 96.33a1 1 0 01-.87-.51 1.11 1.11 0 00-.69-.54 3.12 3.12 0 01-2.21-3.82 1.12 1.12 0 00-.79-1.37 3.12 3.12 0 01-2.21-3.82 1.12 1.12 0 00-.79-1.37 3.12 3.12 0 01-2.21-3.82 1.12 1.12 0 00-.79-1.37 3.12 3.12 0 01-2.21-3.82 1.12 1.12 0 00-.1-.84 1 1 0 111.75-1 3.11 3.11 0 01.29 2.33 1.12 1.12 0 00.79 1.37 3.12 3.12 0 012.21 3.82 1.12 1.12 0 00.78 1.43 3.12 3.12 0 012.21 3.82 1.12 1.12 0 00.79 1.37A3.12 3.12 0 0155.1 92a1.12 1.12 0 00.79 1.37 3.09 3.09 0 011.92 1.49 1 1 0 01-.87 1.49zM46.55 102.33a1 1 0 01-.87-.51 1.11 1.11 0 00-.69-.54 3.12 3.12 0 01-2.21-3.82 1.12 1.12 0 00-.78-1.37 3.12 3.12 0 01-2.21-3.82 1.12 1.12 0 00-.79-1.38 3.12 3.12 0 01-2.21-3.82 1.12 1.12 0 00-.79-1.38 3.12 3.12 0 01-2.21-3.82 1.12 1.12 0 00-.1-.84 1 1 0 111.75-1 3.1 3.1 0 01.29 2.33 1.12 1.12 0 00.79 1.37 3.12 3.12 0 012.21 3.82A1.12 1.12 0 0039.5 89a3.12 3.12 0 012.21 3.82 1.12 1.12 0 00.79 1.37A3.12 3.12 0 0144.71 98a1.12 1.12 0 00.79 1.37 3.1 3.1 0 011.92 1.49 1 1 0 01-.87 1.49zM93.31 75.33a1 1 0 01-.87-.51 1.11 1.11 0 00-.69-.54 3.12 3.12 0 01-2.21-3.82 1.12 1.12 0 00-.79-1.37 3.12 3.12 0 01-2.21-3.82 1.12 1.12 0 00-.79-1.37 3.12 3.12 0 01-2.21-3.82 1.12 1.12 0 00-.79-1.37 3.12 3.12 0 01-2.21-3.82 1.12 1.12 0 00-.1-.84 1 1 0 111.75-1 3.11 3.11 0 01.29 2.33 1.12 1.12 0 00.79 1.37 3.12 3.12 0 012.21 3.82 1.12 1.12 0 00.79 1.43 3.12 3.12 0 012.21 3.82 1.12 1.12 0 00.79 1.37 3.12 3.12 0 012.2 3.81 1.12 1.12 0 00.79 1.37 3.09 3.09 0 011.92 1.49 1 1 0 01-.87 1.49zM82.92 81.33a1 1 0 01-.87-.51 1.11 1.11 0 00-.69-.54 3.12 3.12 0 01-2.21-3.82 1.12 1.12 0 00-.79-1.37 3.12 3.12 0 01-2.21-3.82 1.12 1.12 0 00-.79-1.37 3.12 3.12 0 01-2.21-3.82 1.12 1.12 0 00-.79-1.37 3.12 3.12 0 01-2.21-3.82A1.12 1.12 0 0070 60a1 1 0 111.75-1 3.1 3.1 0 01.29 2.33 1.12 1.12 0 00.79 1.37 3.12 3.12 0 012.21 3.82 1.12 1.12 0 00.83 1.48 3.12 3.12 0 012.21 3.82 1.12 1.12 0 00.79 1.37A3.12 3.12 0 0181.08 77a1.12 1.12 0 00.79 1.37 3.1 3.1 0 011.92 1.49 1 1 0 01-.87 1.49zM72.53 87.33a1 1 0 01-.87-.51 1.11 1.11 0 00-.69-.54 3.12 3.12 0 01-2.21-3.82 1.12 1.12 0 00-.76-1.37 3.12 3.12 0 01-2.21-3.82 1.12 1.12 0 00-.79-1.38 3.12 3.12 0 01-2.21-3.82 1.12 1.12 0 00-.79-1.38 3.12 3.12 0 01-2.21-3.82 1.12 1.12 0 00-.1-.84 1 1 0 111.75-1 3.11 3.11 0 01.29 2.33 1.12 1.12 0 00.79 1.37 3.12 3.12 0 012.21 3.82 1.12 1.12 0 00.75 1.45 3.12 3.12 0 012.21 3.82 1.12 1.12 0 00.79 1.37A3.12 3.12 0 0170.69 83a1.12 1.12 0 00.79 1.37 3.09 3.09 0 011.92 1.49 1 1 0 01-.87 1.49zM62.13 93.33a1 1 0 01-.87-.51 1.11 1.11 0 00-.69-.54 3.12 3.12 0 01-2.21-3.82 1.12 1.12 0 00-.79-1.37 3.12 3.12 0 01-2.21-3.82 1.12 1.12 0 00-.79-1.37 3.12 3.12 0 01-2.21-3.82 1.12 1.12 0 00-.79-1.37 3.12 3.12 0 01-2.21-3.82 1.12 1.12 0 00-.1-.84 1 1 0 111.75-1 3.1 3.1 0 01.29 2.33 1.12 1.12 0 00.79 1.37 3.12 3.12 0 012.21 3.82 1.12 1.12 0 00.79 1.43 3.12 3.12 0 012.21 3.82 1.12 1.12 0 00.79 1.37A3.12 3.12 0 0160.3 89a1.12 1.12 0 00.79 1.37A3.1 3.1 0 0163 91.84a1 1 0 01-.87 1.49zM51.74 99.33a1 1 0 01-.87-.51 1.11 1.11 0 00-.69-.54A3.12 3.12 0 0148 94.46a1.12 1.12 0 00-.79-1.37A3.12 3.12 0 0145 89.26a1.12 1.12 0 00-.79-1.37A3.12 3.12 0 0142 84.07a1.12 1.12 0 00-.79-1.37A3.12 3.12 0 0139 78.87a1.11 1.11 0 00-.1-.84 1 1 0 111.75-1 3.1 3.1 0 01.29 2.33 1.12 1.12 0 00.79 1.37 3.12 3.12 0 012.21 3.82A1.12 1.12 0 0044.7 86a3.12 3.12 0 012.21 3.82 1.12 1.12 0 00.79 1.37A3.12 3.12 0 0149.9 95a1.12 1.12 0 00.79 1.37 3.09 3.09 0 011.92 1.49 1 1 0 01-.87 1.49zM41.35 105.33a1 1 0 01-.87-.51 1.11 1.11 0 00-.69-.54 3.12 3.12 0 01-2.21-3.82 1.12 1.12 0 00-.79-1.37 3.12 3.12 0 01-2.21-3.82 1.12 1.12 0 00-.79-1.37 3.12 3.12 0 01-2.21-3.82 1.12 1.12 0 00-.79-1.37 3.12 3.12 0 01-2.21-3.82 1.12 1.12 0 00-.1-.84 1 1 0 111.75-1 3.1 3.1 0 01.29 2.33 1.12 1.12 0 00.79 1.37 3.12 3.12 0 012.21 3.82A1.12 1.12 0 0034.3 92a3.12 3.12 0 012.21 3.82 1.12 1.12 0 00.79 1.37 3.12 3.12 0 012.21 3.81 1.12 1.12 0 00.79 1.37 3.09 3.09 0 011.92 1.49 1 1 0 01-.87 1.49zM33.28 105.37a1 1 0 01-1-1 3.1 3.1 0 01.1-1 1.12 1.12 0 00-.79-1.37 3.12 3.12 0 01-2.21-3.82 1.12 1.12 0 00-.79-1.37 3.12 3.12 0 01-2.21-3.82 1.12 1.12 0 00-.79-1.37 3.1 3.1 0 01-.89-.39 1 1 0 111.08-1.68 1.11 1.11 0 00.32.14 3.13 3.13 0 012.21 3.82 1.12 1.12 0 00.8 1.49 3.12 3.12 0 012.21 3.82 1.12 1.12 0 00.79 1.37 3.12 3.12 0 012.21 3.81 1.14 1.14 0 000 .35 1 1 0 01-.95 1z"/></g><g class="cls-1"><path class="cls-28" d="M99.87 65.76l-4-6.93-69.28 40a12 12 0 0016.41 4.4l55.43-32a4 4 0 001.44-5.47z"/></g><g class="cls-1"><path class="cls-28" d="M30 96.84a12 12 0 014.39-16.39l-3.46 2a12 12 0 1012 20.78l3.46-2A12 12 0 0130 96.84z"/></g><g class="cls-1"><path class="cls-4" d="M99.87 65.76l-8-13.86a4 4 0 00-5.46-1.46l-3.46 2a4 4 0 015.46 1.46l8 13.86a4 4 0 01-1.46 5.46l3.46-2a4 4 0 001.46-5.46z"/></g><g class="cls-1"><path class="cls-28" d="M52.13 97.94l24-41.57-45 26-2.41 4.13a13 13 0 004.76 17.76l.26.13a12 12 0 009.26-1.16z"/></g><path class="cls-5" d="M37 105.83a13 13 0 01-6.52-24.26l55.43-32a5 5 0 016.83 1.83l8 13.86a5 5 0 01-1.83 6.83l-55.43 32a12.92 12.92 0 01-6.48 1.74zm51.4-54.92a3 3 0 00-1.5.4l-55.43 32a11 11 0 0011 19.05l55.43-32a3 3 0 001.1-4.1l-8-13.85A3 3 0 0089.18 51a3 3 0 00-.78-.09z"/><circle class="cls-4" cx="36.98" cy="92.84" r="6" transform="rotate(-30 36.986 92.83)"/><path class="cls-5" d="M37 99.84a7 7 0 116-10.5 7 7 0 01-6 10.5zm0-12a5 5 0 104.34 2.5 5 5 0 00-4.34-2.5z"/><circle class="cls-27" cx="36.98" cy="92.84" r="2" transform="matrix(.87 -.5 .5 .87 -41.46 30.93)"/><path class="cls-5" d="M37 95.84a3 3 0 111.5-.4 3 3 0 01-1.5.4zm0-4a1 1 0 10.87.5 1 1 0 00-.87-.5z"/><path class="cls-10" d="M79.37 43.57L47.37 99A12 12 0 0131 103.39 12 12 0 0126.58 87l32-55.43A4 4 0 0164 30.11l13.86 8a4 4 0 011.51 5.46z"/><g class="cls-1"><path class="cls-15" d="M67.57 32.1l-10.93 2.93"/><path class="cls-5" d="M56.64 36a1 1 0 01-.26-2l10.93-2.93a1 1 0 11.52 1.93L56.9 36a1 1 0 01-.26 0z"/><path class="cls-15" d="M72.77 35.1l-19.13 5.13"/><path class="cls-5" d="M53.64 41.23a1 1 0 01-.26-2l19.12-5.12a1 1 0 11.5 1.96L53.9 41.2a1 1 0 01-.26.03z"/><path class="cls-15" d="M77.96 38.1l-27.32 7.33"/><path class="cls-5" d="M50.64 46.43a1 1 0 01-.26-2l27.32-7.32a1 1 0 01.52 1.93L50.9 46.39a1 1 0 01-.26.04z"/><path class="cls-15" d="M79.94 41.97l-32.3 8.65"/><path class="cls-5" d="M47.64 51.62a1 1 0 01-.26-2L79.68 41a1 1 0 01.52 1.93l-32.3 8.66a1 1 0 01-.26.03z"/><path class="cls-15" d="M77.43 47.03l-32.79 8.79"/><path class="cls-5" d="M44.64 56.82a1 1 0 01-.26-2l32.78-8.78a1 1 0 01.53 1.96L44.9 56.78a1 1 0 01-.26.04z"/><path class="cls-15" d="M74.43 52.23l-32.79 8.78"/><path class="cls-5" d="M41.64 62a1 1 0 01-.26-2l32.78-8.78a1 1 0 11.52 1.93L41.9 62a1 1 0 01-.26 0z"/><path class="cls-15" d="M71.43 57.43l-32.79 8.78"/><path class="cls-5" d="M38.64 67.21a1 1 0 01-.26-2l32.78-8.78a1 1 0 01.52 1.93L38.9 67.18a1 1 0 01-.26.03z"/><path class="cls-15" d="M68.43 62.62l-32.79 8.79"/><path class="cls-5" d="M35.64 72.41a1 1 0 01-.26-2l32.78-8.78a1 1 0 01.52 1.93L35.9 72.37a1 1 0 01-.26.04z"/><path class="cls-15" d="M65.43 67.82L32.64 76.6"/><path class="cls-5" d="M32.64 77.6a1 1 0 01-.26-2l32.78-8.78a1 1 0 01.52 1.93L32.9 77.57a1 1 0 01-.26.03z"/><path class="cls-15" d="M62.43 73.01L29.64 81.8"/><path class="cls-5" d="M29.64 82.8a1 1 0 01-.26-2L62.17 72a1 1 0 01.52 2L29.9 82.76a1 1 0 01-.26.04z"/><path class="cls-15" d="M59.43 78.21l-32.79 8.78"/><path class="cls-5" d="M26.64 88a1 1 0 01-.26-2l32.78-8.78a1 1 0 01.52 1.93L26.9 88a1 1 0 01-.26 0z"/><path class="cls-15" d="M56.43 83.41L25.09 91.8"/><path class="cls-5" d="M25.09 92.8a1 1 0 01-.26-2l31.33-8.4a1 1 0 11.52 1.93l-31.33 8.4a1 1 0 01-.26.07z"/><path class="cls-15" d="M53.43 88.6l-27.98 7.5"/><path class="cls-5" d="M25.45 97.1a1 1 0 01-.26-2l28-7.5a1 1 0 01.52 1.93l-28 7.5a1 1 0 01-.26.07z"/><path class="cls-15" d="M50.43 93.8L27.29 100"/><path class="cls-5" d="M27.29 101a1 1 0 01-.29-2l23.14-6.2a1 1 0 01.52 1.93L27.55 101a1 1 0 01-.26 0z"/><path class="cls-15" d="M47.43 98.99l-16.39 4.4"/><path class="cls-5" d="M31 104.39a1 1 0 01-.26-2L47.17 98a1 1 0 01.52 1.93l-16.39 4.42a1 1 0 01-.3.04z"/></g><g class="cls-29"><path class="cls-12" d="M53 41.25l-26 45V93a13 13 0 007.41 11.72 12 12 0 0013-5.72L53 89.25z"/></g><g class="cls-29"><path class="cls-12" d="M79.77 40.54a4 4 0 00-1.86-2.43l-6.93-4L31 103.39A12 12 0 0047.37 99l32-55.43a4 4 0 00.4-3z"/></g><g class="cls-1"><path class="cls-26" d="M33 99.93a12 12 0 01-4.39-16.39l-2 3.46a12 12 0 1020.76 12l2-3.46A12 12 0 0133 99.93z"/></g><g class="cls-11"><path class="cls-4" d="M77.91 38.11l-13.91-8a4 4 0 00-5.46 1.46l-2 3.46A4 4 0 0162 33.57l13.86 8A4 4 0 0177.37 47l2-3.46a4 4 0 00-1.46-5.43z"/></g><path class="cls-5" d="M37 106a13 13 0 01-11.28-19.5l32-55.43a5 5 0 016.83-1.83l13.86 8a5 5 0 011.83 6.83l-32 55.43a12.92 12.92 0 01-7.89 6.06A13.08 13.08 0 0137 106zm25.1-75.43a3 3 0 00-2.6 1.5l-32 55.43a11 11 0 1019.05 11l32-55.43a3 3 0 00-1.1-4.1L63.55 31a3 3 0 00-1.5-.43z"/><circle class="cls-4" cx="36.98" cy="93" r="6" transform="rotate(-60 36.975 92.997)"/><path class="cls-5" d="M37 100a7 7 0 116-3.5 7 7 0 01-6 3.5zm0-12a5 5 0 102.49.67A5 5 0 0037 88z"/><circle class="cls-27" cx="36.98" cy="93" r="2" transform="rotate(-60 36.975 92.997)"/><path class="cls-5" d="M37 96a3 3 0 112.6-1.5A3 3 0 0137 96zm0-4a1 1 0 00-.5 1.87 1 1 0 101-1.73A1 1 0 0037 92z"/><path class="cls-21" d="M49 29v64a12 12 0 01-12 12 12 12 0 01-12-12V29a4 4 0 014-4h16a4 4 0 014 4z"/><g class="cls-1"><path class="cls-5" d="M31 83a1.05 1.05 0 01-.71-.29 1.16 1.16 0 01-.21-.33A1 1 0 0130 82a1.05 1.05 0 01.29-.71 1 1 0 01.91-.29.63.63 0 01.18.06.55.55 0 01.17.09 1 1 0 01.16.12A1.05 1.05 0 0132 82a1 1 0 01-.08.38 1.16 1.16 0 01-.21.33l-.16.12a.55.55 0 01-.17.09l-.18.08zM34 80a1.05 1.05 0 01-.71-.29 1.16 1.16 0 01-.21-.33.95.95 0 010-.76 1.15 1.15 0 01.21-.33 1 1 0 011.42 0 1.16 1.16 0 01.21.33.94.94 0 010 .76 1.16 1.16 0 01-.21.33A1.05 1.05 0 0134 80zM28 80a1.05 1.05 0 01-.71-.29 1.16 1.16 0 01-.21-.33.95.95 0 010-.76 1.15 1.15 0 01.21-.33 1 1 0 011.09-.21.9.9 0 01.54.54.94.94 0 010 .76.9.9 0 01-.54.54.84.84 0 01-.38.08zM31 77a.84.84 0 01-.38-.08 1.16 1.16 0 01-.33-.21A1.05 1.05 0 0130 76a1 1 0 01.29-.71 1.15 1.15 0 01.33-.21.92.92 0 01.76 0 1.16 1.16 0 01.33.21 1 1 0 010 1.42 1.16 1.16 0 01-.33.21.84.84 0 01-.38.08zM34 74a.84.84 0 01-.38-.08 1.16 1.16 0 01-.33-.21 1 1 0 010-1.42 1.15 1.15 0 01.33-.21 1 1 0 011.09.21A1 1 0 0134 74zM28 74a1 1 0 01-.71-1.71 1 1 0 011.09-.21 1.16 1.16 0 01.33.21 1 1 0 010 1.42 1.16 1.16 0 01-.33.21.84.84 0 01-.38.08zM31 71a1 1 0 01-1-1 1 1 0 01.08-.38 1.15 1.15 0 01.21-.33 1 1 0 011.09-.21.9.9 0 01.54.54A1 1 0 0132 70a1.05 1.05 0 01-.29.71 1.16 1.16 0 01-.33.21A1 1 0 0131 71zM34 68a1 1 0 11.71-.29A1.05 1.05 0 0134 68zM28 68a1 1 0 01-1-1 1 1 0 01.29-.71 1 1 0 011.09-.21 1.16 1.16 0 01.33.21 1 1 0 010 1.42 1.16 1.16 0 01-.33.21A1 1 0 0128 68zM31 65a1 1 0 11.2-2 .63.63 0 01.18.06.55.55 0 01.17.09l.16.12A1 1 0 0131 65zM34 62a1 1 0 11.71-.29A1.05 1.05 0 0134 62zM28 62a1 1 0 11.71-.29A1.05 1.05 0 0128 62zM31 59a1.05 1.05 0 01-.71-.29A1 1 0 0130 58a1 1 0 111 1zM34 56a1 1 0 01-1-1 1 1 0 01.08-.38.93.93 0 01.21-.33 1 1 0 011.42 0 .94.94 0 01.21.33.84.84 0 01.08.38 1 1 0 01-1 1zM28 56a1 1 0 01-1-1 1 1 0 01.08-.38.93.93 0 01.21-.33 1 1 0 011.42 0 .94.94 0 01.21.33A1 1 0 0129 55a1 1 0 01-1 1zM31 53a1 1 0 11.71-.29A1.05 1.05 0 0131 53zM34 50a1 1 0 11.71-.29A1.05 1.05 0 0134 50zM28 50a1 1 0 11.71-.29A1.05 1.05 0 0128 50zM31 47a.84.84 0 01-.38-.08 1 1 0 01-.33-.21 1 1 0 010-1.42 1 1 0 01.33-.21 1 1 0 011.09.21A1 1 0 0131 47zM34 44a1 1 0 01-1-1 1 1 0 01.08-.38 1 1 0 01.21-.33 1.15 1.15 0 01.33-.21 1 1 0 011.09.21 1 1 0 01.21.33A1 1 0 0135 43a1 1 0 01-1 1zM28 44a1 1 0 01-1-1 1 1 0 01.08-.38.91.91 0 01.54-.54 1 1 0 011.09.21 1 1 0 01.21.33A1 1 0 0129 43a1 1 0 01-1 1zM31 41a1 1 0 01-.38-.08 1.16 1.16 0 01-.33-.21 1 1 0 010-1.42 1 1 0 01.33-.21 1 1 0 01.76 0 1 1 0 01.33.21A1 1 0 0131 41zM34 38a1.05 1.05 0 01-.71-.29l-.12-.15a.76.76 0 01-.09-.18.63.63 0 01-.08-.18 1 1 0 010-.4.63.63 0 01.06-.18.77.77 0 01.09-.18l.12-.15a1 1 0 01.93-.29.63.63 0 01.18.06.76.76 0 01.18.09l.15.12a1.47 1.47 0 01.12.15.77.77 0 01.09.18.65.65 0 01.06.18 1 1 0 010 .4.65.65 0 01-.06.18.76.76 0 01-.09.18 1.59 1.59 0 01-.12.15l-.15.12a.76.76 0 01-.18.09l-.18.1zM28 38a1 1 0 01-.38-.08 1 1 0 01-.33-.21l-.12-.15a.76.76 0 01-.09-.18.63.63 0 01-.08-.18 1 1 0 010-.4.63.63 0 01.06-.18.77.77 0 01.09-.18l.12-.15a1 1 0 011.42 0 1.47 1.47 0 01.12.15.77.77 0 01.09.18.65.65 0 01.06.18 1 1 0 010 .4.65.65 0 01-.06.18.76.76 0 01-.09.18 1.59 1.59 0 01-.12.15 1.16 1.16 0 01-.33.21A1 1 0 0128 38zM31 35a1 1 0 01-.38-.08 1.16 1.16 0 01-.33-.21 1.6 1.6 0 01-.12-.15.76.76 0 01-.09-.18.6.6 0 01-.06-.19A1.19 1.19 0 0130 34a1.46 1.46 0 010-.2.63.63 0 01.06-.18.77.77 0 01.09-.18 1.48 1.48 0 01.12-.15 1.15 1.15 0 01.33-.21 1 1 0 011.09.21A1.05 1.05 0 0132 34a1.25 1.25 0 010 .19.62.62 0 01-.06.19.76.76 0 01-.09.18l-.12.15A1.05 1.05 0 0131 35zM34 32h-.2l-.18-.06-.18-.09-.15-.12-.12-.15a.76.76 0 01-.09-.18.63.63 0 01-.08-.2 1.32 1.32 0 010-.2 1 1 0 01.08-.38 1.15 1.15 0 01.21-.33 1 1 0 011.09-.21.9.9 0 01.54.54A1 1 0 0135 31a1.38 1.38 0 010 .2.65.65 0 01-.06.18.76.76 0 01-.09.18l-.12.15a1.16 1.16 0 01-.33.21 1 1 0 01-.4.08zM28 32a1 1 0 01-.38-.08 1.16 1.16 0 01-.33-.21l-.12-.15a.76.76 0 01-.09-.18.63.63 0 01-.08-.18 1.32 1.32 0 010-.2 1 1 0 01.08-.38.91.91 0 01.54-.54 1 1 0 011.09.21 1.16 1.16 0 01.21.33A1 1 0 0129 31a1.38 1.38 0 010 .2.65.65 0 01-.06.18.76.76 0 01-.09.18l-.12.15-.15.12a.76.76 0 01-.18.09l-.2.08zM31 29a.84.84 0 01-.38-.08 1.16 1.16 0 01-.33-.21A1.05 1.05 0 0130 28a1 1 0 01.08-.38.91.91 0 01.54-.54 1 1 0 01.58-.08.63.63 0 01.18.06.76.76 0 01.18.09 1.6 1.6 0 01.15.12 1.16 1.16 0 01.21.33.84.84 0 01.08.4 1.38 1.38 0 010 .2.65.65 0 01-.06.18.76.76 0 01-.09.18l-.12.15-.15.12a.76.76 0 01-.18.09l-.2.08zM37 83a1.05 1.05 0 01-.71-.29 1.16 1.16 0 01-.21-.33A1 1 0 0136 82a1 1 0 011.2-1 .63.63 0 01.18.06.76.76 0 01.18.09 1.6 1.6 0 01.15.12A1.05 1.05 0 0138 82a1 1 0 01-.08.38 1.16 1.16 0 01-.21.33l-.15.12a.76.76 0 01-.18.09l-.18.08zM40 80a1.05 1.05 0 01-.71-.29 1.16 1.16 0 01-.21-.33.95.95 0 010-.76 1.15 1.15 0 01.21-.33 1 1 0 011.42 0 1.16 1.16 0 01.21.33.94.94 0 010 .76 1.16 1.16 0 01-.21.33A1.05 1.05 0 0140 80zM37 77a.84.84 0 01-.38-.08 1 1 0 01-.33-.21A1.05 1.05 0 0136 76a1 1 0 01.62-.92 1 1 0 011.09.21A1.05 1.05 0 0138 76a1.38 1.38 0 010 .2.65.65 0 01-.06.18.76.76 0 01-.09.18l-.12.15A1.05 1.05 0 0137 77zM40 74a1 1 0 11.2-2 .63.63 0 01.18.06.76.76 0 01.18.09l.15.12a1 1 0 010 1.42l-.15.12a.76.76 0 01-.18.09l-.18.1zM37 71a1 1 0 01-1-1 1 1 0 01.08-.38 1.15 1.15 0 01.21-.33 1 1 0 011.42 0 1.16 1.16 0 01.21.33A1 1 0 0138 70a1 1 0 01-1 1zM40 68a1 1 0 01-.71-.29 1 1 0 111.42 0 .94.94 0 01-.33.21A1 1 0 0140 68zM37 65a.84.84 0 01-.38-.08 1.16 1.16 0 01-.33-.21 1 1 0 010-1.42 1.15 1.15 0 01.33-.21 1 1 0 011.09.21A1 1 0 0137 65zM40 62a1 1 0 11.71-.29A1.05 1.05 0 0140 62zM37 59a1.05 1.05 0 01-.71-.29A1 1 0 0136 58a1 1 0 111 1zM40 56a1 1 0 01-1-1 1 1 0 01.08-.38.93.93 0 01.21-.33 1 1 0 011.42 0 .94.94 0 01.21.33A1 1 0 0141 55a1 1 0 01-1 1zM37 53a1 1 0 11.71-.29A1.05 1.05 0 0137 53zM40 50a1.05 1.05 0 01-.71-.29 1.16 1.16 0 01-.21-.33.95.95 0 010-.76 1.15 1.15 0 01.21-.33A1 1 0 1140 50zM37 47a1 1 0 01-.71-1.71 1 1 0 01.33-.21 1 1 0 01.76 0 .94.94 0 01.33.21A1 1 0 0137 47zM40 44a1 1 0 01-1-1 1 1 0 01.08-.38 1 1 0 01.21-.33 1 1 0 011.09-.21.9.9 0 01.54.54A1 1 0 0141 43a1 1 0 01-1 1zM37 41a1 1 0 01-.38-.08 1 1 0 01-.33-.21 1 1 0 010-1.42 1 1 0 01.33-.21 1 1 0 01.76 0 1 1 0 01.33.21A1.05 1.05 0 0138 40a.84.84 0 01-.08.38 1 1 0 01-.21.33A1.05 1.05 0 0137 41zM40 38h-.2l-.18-.06-.18-.09-.15-.12-.12-.15a.76.76 0 01-.09-.18.63.63 0 01-.08-.2 1 1 0 010-.4.63.63 0 01.06-.18.77.77 0 01.09-.18l.12-.15.15-.12.18-.09a.63.63 0 01.2-.08 1 1 0 01.91.27l.12.15a.77.77 0 01.09.18.65.65 0 01.06.18 1 1 0 010 .4.65.65 0 01-.06.18.76.76 0 01-.09.18l-.12.15A1.05 1.05 0 0140 38zM37 35a1 1 0 01-.38-.08 1.16 1.16 0 01-.33-.21l-.12-.15a.76.76 0 01-.09-.18.6.6 0 01-.06-.19A1.19 1.19 0 0136 34a1.46 1.46 0 010-.2.63.63 0 01.06-.18.77.77 0 01.09-.18l.12-.15a1.15 1.15 0 01.33-.21 1 1 0 011.09.21l.12.15a.77.77 0 01.09.18.65.65 0 01.06.18 1.54 1.54 0 010 .2 1.25 1.25 0 010 .19.62.62 0 01-.06.19.76.76 0 01-.09.18l-.12.15-.15.12a.76.76 0 01-.18.09l-.16.08zM40 32a1 1 0 01-.38-.08 1.16 1.16 0 01-.33-.21l-.12-.15a.76.76 0 01-.09-.18.63.63 0 01-.08-.18 1.32 1.32 0 010-.2 1 1 0 01.08-.38.91.91 0 01.54-.54 1 1 0 01.58-.08.63.63 0 01.18.06.76.76 0 01.18.09l.15.12a1.16 1.16 0 01.21.33 1 1 0 01.08.4 1.38 1.38 0 010 .2.65.65 0 01-.06.18.76.76 0 01-.09.18l-.12.15-.15.12a.76.76 0 01-.18.09l-.2.08zM37 29a1 1 0 01-1-1 1 1 0 01.08-.38 1.15 1.15 0 01.21-.33 1 1 0 011.09-.21.9.9 0 01.54.54A1 1 0 0138 28a1.38 1.38 0 010 .2.65.65 0 01-.06.18.76.76 0 01-.09.18 1.59 1.59 0 01-.12.15A1.05 1.05 0 0137 29zM43 83a1.05 1.05 0 01-.71-.29 1.16 1.16 0 01-.21-.33A1 1 0 0142 82a1.05 1.05 0 01.29-.71 1 1 0 01.91-.29.63.63 0 01.18.06.76.76 0 01.18.09 1.6 1.6 0 01.15.12A1.05 1.05 0 0144 82a1 1 0 01-.08.38 1.16 1.16 0 01-.21.33l-.15.12a.76.76 0 01-.18.09l-.18.08zM46 80a1.05 1.05 0 01-.71-.29 1.16 1.16 0 01-.21-.33.95.95 0 010-.76 1.15 1.15 0 01.21-.33 1 1 0 011.42 0 1.16 1.16 0 01.21.33.94.94 0 010 .76 1.16 1.16 0 01-.21.33l-.15.12a.76.76 0 01-.18.09l-.18.08zM43 77a1.05 1.05 0 01-.71-.29l-.12-.15a.76.76 0 01-.09-.18.63.63 0 01-.08-.18 1.32 1.32 0 010-.2 1 1 0 112 0 1.38 1.38 0 010 .2.65.65 0 01-.06.18.76.76 0 01-.09.18l-.12.15A1.05 1.05 0 0143 77zM46 74a1 1 0 01-.71-1.71 1 1 0 011.09-.21 1.16 1.16 0 01.33.21 1 1 0 010 1.42 1.16 1.16 0 01-.33.21.84.84 0 01-.38.08zM31 95a1 1 0 01-.38-.08 1.16 1.16 0 01-.33-.21A1.05 1.05 0 0130 94a1 1 0 01.08-.38.91.91 0 01.54-.54 1 1 0 011.09.21 1 1 0 01-.33 1.63A1 1 0 0131 95zM34 92a1 1 0 01-.38-.08 1.16 1.16 0 01-.33-.21A1.05 1.05 0 0133 91a1 1 0 01.08-.38.91.91 0 01.54-.54 1 1 0 011.09.21 1.16 1.16 0 01.21.33A1 1 0 0135 91a1 1 0 01-1 1zM28 92a1 1 0 01-.71-.29A1.05 1.05 0 0127 91a1 1 0 01.08-.38 1.15 1.15 0 01.21-.33l.16-.12a.56.56 0 01.17-.09.63.63 0 01.18-.08 1 1 0 01.91.27 1.16 1.16 0 01.21.33 1 1 0 01.08.4 1.05 1.05 0 01-.29.71.94.94 0 01-.33.21A1 1 0 0128 92zM31 89a1.05 1.05 0 01-.71-.29A1 1 0 0130 88a1 1 0 01.08-.38 1.15 1.15 0 01.21-.33 1 1 0 011.09-.21.9.9 0 01.54.54A1 1 0 0132 88a1 1 0 01-.29.71A1.05 1.05 0 0131 89zM34 86a1 1 0 01-.38-.08.9.9 0 01-.54-.54A1 1 0 0133 85a1.05 1.05 0 01.29-.71 1.15 1.15 0 01.33-.21 1 1 0 01.58-.08.63.63 0 01.18.06.76.76 0 01.18.09 1.6 1.6 0 01.15.12A1.05 1.05 0 0135 85a1 1 0 01-.08.38 1.16 1.16 0 01-.21.33l-.15.12a.76.76 0 01-.18.09l-.18.08zM28 86a1 1 0 01-.38-.08.9.9 0 01-.54-.54A1 1 0 0127 85a1.05 1.05 0 01.29-.71 1.15 1.15 0 01.33-.21 1 1 0 011.09.21 1.47 1.47 0 01.12.15.77.77 0 01.09.18.65.65 0 01.06.18 1.38 1.38 0 010 .2 1 1 0 01-.08.38 1.16 1.16 0 01-.21.33A1.05 1.05 0 0128 86zM37 95a1 1 0 01-.38-.08 1 1 0 01-.33-.21A1.05 1.05 0 0136 94a1 1 0 01.08-.38.91.91 0 01.54-.54 1 1 0 01.58-.08.63.63 0 01.18.06.76.76 0 01.18.09 1.6 1.6 0 01.15.12 1 1 0 01.21.33.94.94 0 010 .76 1.16 1.16 0 01-.21.33A1 1 0 0137 95zM40 92a1 1 0 01-.71-.29A1.05 1.05 0 0139 91a1 1 0 01.08-.38 1.15 1.15 0 01.21-.33l.16-.12a.56.56 0 01.17-.09.63.63 0 01.18-.08 1 1 0 01.91.27 1.16 1.16 0 01.21.33 1 1 0 01.08.4 1.05 1.05 0 01-.29.71.94.94 0 01-.33.21A1 1 0 0140 92zM37 89a1.05 1.05 0 01-.71-.29 1.6 1.6 0 01-.12-.15.76.76 0 01-.09-.18.63.63 0 01-.08-.18 1.32 1.32 0 010-.2 1 1 0 01.08-.38 1.15 1.15 0 01.21-.33 1 1 0 011.09-.21 1 1 0 01.33.21 1.16 1.16 0 01.21.33A1 1 0 0138 88a1.38 1.38 0 010 .2.65.65 0 01-.06.18.76.76 0 01-.09.18 1.59 1.59 0 01-.12.15 1 1 0 01-.33.21.84.84 0 01-.4.08zM40 86a1 1 0 01-.71-.29 1.16 1.16 0 01-.21-.33A1 1 0 0139 85a1.05 1.05 0 01.29-.71 1.48 1.48 0 01.15-.12l.18-.09a.63.63 0 01.18-.08 1 1 0 01.58.06 1.16 1.16 0 01.33.21A1.05 1.05 0 0141 85a.84.84 0 01-.08.38.9.9 0 01-.54.54A1 1 0 0140 86zM43 95a1 1 0 01-.71-.29 1.16 1.16 0 01-.21-.33.95.95 0 010-.76 1 1 0 01.21-.33 1.48 1.48 0 01.15-.12l.18-.09a.63.63 0 01.18-.08 1 1 0 01.91.27 1 1 0 01.21.33.84.84 0 01.08.4 1.05 1.05 0 01-.29.71 1 1 0 01-.33.21A1 1 0 0143 95zM46 92a1 1 0 01-.38-.08 1.16 1.16 0 01-.33-.21A1.05 1.05 0 0145 91a1 1 0 01.08-.38.91.91 0 01.54-.54 1 1 0 011.09.21 1.16 1.16 0 01.21.33A1 1 0 0147 91a1 1 0 01-1 1zM43 89a.84.84 0 01-.38-.08 1.16 1.16 0 01-.33-.21l-.12-.15a.76.76 0 01-.09-.18.63.63 0 01-.08-.18 1.32 1.32 0 010-.2 1 1 0 01.08-.38.91.91 0 01.54-.54 1 1 0 011.09.21 1.16 1.16 0 01.21.33.84.84 0 01.08.38 1.38 1.38 0 010 .2.65.65 0 01-.06.18.76.76 0 01-.09.18l-.12.15-.15.12a.76.76 0 01-.18.09l-.2.08zM46 86a1.05 1.05 0 01-.71-.29 1.16 1.16 0 01-.21-.33A1 1 0 0145 85a1.05 1.05 0 01.29-.71 1 1 0 011.09-.21 1.16 1.16 0 01.33.21l.12.15a.77.77 0 01.09.18.65.65 0 01.06.18 1.38 1.38 0 010 .2 1 1 0 01-.08.38 1.16 1.16 0 01-.21.33 1 1 0 01-.33.21A1 1 0 0146 86zM34 104a1 1 0 01-.38-.08.9.9 0 01-.54-.54.95.95 0 010-.76.91.91 0 01.54-.54 1 1 0 01.76 0 1 1 0 01.33.21 1 1 0 01-.33 1.63 1 1 0 01-.38.08zM31 101a1 1 0 01-.38-.08 1.16 1.16 0 01-.33-.21 1 1 0 111.09.21 1 1 0 01-.38.08zM34 98a1 1 0 01-.71-1.71 1 1 0 011.42 0A1 1 0 0134 98zM28 98a1 1 0 01-.38-.08 1 1 0 010-1.84 1 1 0 011.09.21l.12.15a.77.77 0 01.09.18.65.65 0 01.06.18 1 1 0 010 .4.65.65 0 01-.06.18.76.76 0 01-.09.18l-.12.15A1 1 0 0128 98zM40 104a1 1 0 01-.38-.08.9.9 0 01-.54-.54.95.95 0 010-.76.91.91 0 01.54-.54 1 1 0 011.09.21A1 1 0 0140 104zM37 101a1 1 0 01-.38-.08 1 1 0 01-.33-.21 1 1 0 010-1.42 1.15 1.15 0 01.33-.21 1 1 0 011.09.21 1 1 0 010 1.42 1 1 0 01-.71.29zM40 98a1 1 0 01-.38-.08 1.16 1.16 0 01-.33-.21l-.12-.15a.76.76 0 01-.09-.18.63.63 0 01-.08-.18 1 1 0 010-.4.63.63 0 01.06-.18.77.77 0 01.09-.18l.12-.15a1.15 1.15 0 01.33-.21 1 1 0 01.76 0 1 1 0 01.33.21l.12.15a.77.77 0 01.09.18.65.65 0 01.06.18 1 1 0 010 .4.65.65 0 01-.06.18.76.76 0 01-.09.18l-.12.15a1 1 0 01-.33.21A1 1 0 0140 98zM43 101a1 1 0 01-.38-.08 1 1 0 01-.33-.21 1 1 0 010-1.42 1.15 1.15 0 01.33-.21 1 1 0 011.09.21A1 1 0 0143 101zM46 98a1 1 0 01-.38-.08 1.16 1.16 0 01-.33-.21l-.12-.15a.76.76 0 01-.09-.18.63.63 0 01-.08-.18 1 1 0 010-.4.63.63 0 01.06-.18.77.77 0 01.09-.18l.12-.15a1.15 1.15 0 01.33-.21 1 1 0 01.76 0 1 1 0 01.33.21 1.47 1.47 0 01.12.15.77.77 0 01.09.18.65.65 0 01.06.18 1 1 0 010 .4.65.65 0 01-.06.18.76.76 0 01-.09.18 1.59 1.59 0 01-.12.15 1 1 0 01-.33.21A1 1 0 0146 98zM43 71a1 1 0 01-1-1 1 1 0 01.08-.38 1.15 1.15 0 01.21-.33 1 1 0 011.09-.21.9.9 0 01.54.54A1 1 0 0144 70a1.05 1.05 0 01-.29.71 1.16 1.16 0 01-.33.21A1 1 0 0143 71zM46 68a1 1 0 01-1-1 1 1 0 01.29-.71 1 1 0 011.09-.21 1.16 1.16 0 01.33.21 1 1 0 010 1.42 1.16 1.16 0 01-.33.21A1 1 0 0146 68zM43 65a1 1 0 11.71-.29A1.05 1.05 0 0143 65zM46 62a1 1 0 11.71-.29A1.05 1.05 0 0146 62zM43 59a1 1 0 11.71-.29A1.05 1.05 0 0143 59zM46 56a1 1 0 01-1-1 1 1 0 01.08-.38.93.93 0 01.21-.33 1 1 0 011.42 0 .94.94 0 01.21.33A1 1 0 0147 55a1 1 0 01-1 1zM43 53a1 1 0 01-.71-1.71 1 1 0 011.42 0A1 1 0 0143 53zM46 50a1 1 0 11.71-.29A1.05 1.05 0 0146 50zM43 47a1.05 1.05 0 01-.71-.29 1 1 0 01-.21-.33.95.95 0 010-.76.91.91 0 01.54-.54 1 1 0 01.76 0 1 1 0 01.33.21A1 1 0 0143 47zM46 44a1.05 1.05 0 01-.71-.29 1 1 0 01-.21-.33.95.95 0 010-.76.93.93 0 01.21-.33 1 1 0 01.91-.29.63.63 0 01.18.06.76.76 0 01.18.09l.15.12a1 1 0 01.21.33 1 1 0 01.08.4 1.05 1.05 0 01-.29.71l-.15.12a.76.76 0 01-.18.09l-.18.08zM43 41a1 1 0 01-.71-1.71 1 1 0 01.33-.21 1 1 0 01.76 0 1 1 0 01.33.21A1.05 1.05 0 0144 40a.84.84 0 01-.08.38 1 1 0 01-.21.33A1.05 1.05 0 0143 41zM46 38a1 1 0 01-.38-.08 1.16 1.16 0 01-.33-.21 1.6 1.6 0 01-.12-.15.76.76 0 01-.09-.18.63.63 0 01-.08-.18 1 1 0 010-.4.63.63 0 01.06-.18.77.77 0 01.09-.18 1.48 1.48 0 01.12-.15 1 1 0 011.42 0l.12.15a.77.77 0 01.09.18.65.65 0 01.06.18 1 1 0 010 .4.65.65 0 01-.06.18.76.76 0 01-.09.18l-.12.15a1 1 0 01-.33.21A1 1 0 0146 38zM43 35h-.2l-.18-.06-.18-.09-.15-.12-.12-.15a.76.76 0 01-.09-.18.6.6 0 01-.06-.19A1.19 1.19 0 0142 34a1.46 1.46 0 010-.2.63.63 0 01.06-.18.77.77 0 01.09-.18l.12-.15.15-.12.18-.09a.63.63 0 01.2-.08 1 1 0 01.58.06 1 1 0 01.33.21l.12.15a.77.77 0 01.09.18.65.65 0 01.06.18 1.54 1.54 0 010 .2 1.25 1.25 0 010 .19.62.62 0 01-.06.19.76.76 0 01-.09.18l-.12.15A1.05 1.05 0 0143 35zM46 32h-.2l-.18-.06-.18-.09-.15-.12-.12-.15a.76.76 0 01-.09-.18.63.63 0 01-.08-.2 1.32 1.32 0 010-.2 1 1 0 01.08-.38 1.15 1.15 0 01.21-.33 1 1 0 011.09-.21 1.16 1.16 0 01.33.21 1 1 0 01.21.33A1 1 0 0147 31a1.38 1.38 0 010 .2.65.65 0 01-.06.18.76.76 0 01-.09.18l-.12.15A1.05 1.05 0 0146 32zM43 29h-.2l-.18-.06-.18-.09-.15-.12A1.05 1.05 0 0142 28a.84.84 0 01.08-.38 1.15 1.15 0 01.21-.33 1 1 0 011.09-.21.9.9 0 01.54.54A1 1 0 0144 28a1 1 0 01-1 1z"/></g><g class="cls-1"><path class="cls-23" d="M45 25h-8v80a12 12 0 0012-12V29a4 4 0 00-4-4z"/></g><g class="cls-1"><path class="cls-23" d="M37 101a12 12 0 01-12-12v4a12 12 0 0024 0v-4a12 12 0 01-12 12z"/></g><g class="cls-11"><path class="cls-4" d="M45 25H29a4 4 0 00-4 4v4a4 4 0 014-4h16a4 4 0 014 4v-4a4 4 0 00-4-4z"/></g><path class="cls-5" d="M37 106a13 13 0 01-13-13V29a5 5 0 015-5h16a5 5 0 015 5v64a13 13 0 01-13 13zm-8-80a3 3 0 00-3 3v64a11 11 0 0022 0V29a3 3 0 00-3-3z"/><circle class="cls-4" cx="37" cy="93" r="6"/><path class="cls-5" d="M37 100a7 7 0 117-7 7 7 0 01-7 7zm0-12a5 5 0 105 5 5 5 0 00-5-5z"/><circle class="cls-27" cx="37" cy="93" r="2"/><path class="cls-5" d="M37 96a3 3 0 113-3 3 3 0 01-3 3zm0-4a1 1 0 101 1 1 1 0 00-1-1z"/></svg>