<svg version="1.1" id="_015" xmlns="http://www.w3.org/2000/svg" xmlns:xlink="http://www.w3.org/1999/xlink" x="0" y="0" viewBox="0 0 128 128" xml:space="preserve"><style>.st0{opacity:.3}.st2{fill:#6d6da8}.st7{fill:#c5e7ff}.st10{fill:#fff}.st12{fill:#6d6daa}.st14{opacity:.5}.st16{fill:#5eca9e}.st17{opacity:.15;fill:#ff97af;enable-background:new}</style><g class="st0"><path d="M1.8 45.7c1.8-12.4 11.2-22.4 23.5-25 4.3-.9 8.1-3.2 10.9-6.6C49.5-1.5 72.8-3.4 88.4 9.8c6.1 5.2 10.4 12.2 12.2 20 1.3 5.7 5.1 10.6 10.4 13.2 13.8 6.9 19.5 23.7 12.6 37.5S99.9 100 86.1 93.1c-5.5-2.8-10-7.3-12.7-12.9-1.6-3.2-5-5.2-8.6-5.2H64c-5.8.1-10.8 4.1-12 9.7-.4 1.8-1.1 3.5-2 5.1-5.4 9.7-17.5 13.1-27.2 7.8-6.1-3.4-10-9.7-10.3-16.6-.2-4.5-1.8-8.8-4.5-12.3-5.1-6.5-7.4-14.8-6.2-23z" fill="#eaeaea"/><path class="st2" d="M110 126H17c-.6 0-1-.4-1-1s.4-1 1-1h93c.6 0 1 .4 1 1s-.4 1-1 1zM114 126h-1c-.6 0-1-.4-1-1s.4-1 1-1h1c.6 0 1 .4 1 1s-.4 1-1 1zM14.1 126c-.6 0-1.1-.4-1.1-1s.4-1 1-1 1 .4 1 1c0 .5-.4 1-.9 1z"/></g><path fill="#ccd6ec" d="M50 113h26v12H50z"/><path class="st2" d="M76 126H50c-.6 0-1-.4-1-1v-12c0-.6.4-1 1-1h26c.6 0 1 .4 1 1v12c0 .6-.4 1-1 1zm-25-2h24v-10H51v10z"/><path class="st2" d="M80 126H46c-.6 0-1-.4-1-1s.4-1 1-1h34c.6 0 1 .4 1 1s-.4 1-1 1z"/><path opacity=".3" fill="#2b5c8c" d="M51 113h24v4H51z"/><path d="M19 41h90c2.2 0 4 1.8 4 4v58H15V45c0-2.2 1.8-4 4-4z" fill="#919dc4"/><path fill="#def1ff" d="M19 45h90v54H19z"/><path class="st7" d="M108 50L20 91.2V46h88zM108 56.7L20 98v-3.4l88-41.3z"/><path opacity=".3" fill="#1c64b8" d="M19 45h90v4H19z"/><path class="st2" d="M109 100H19c-.6 0-1-.4-1-1V45c0-.6.4-1 1-1h90c.6 0 1 .4 1 1v54c0 .6-.4 1-1 1zm-89-2h88V46H20v52z"/><path class="st2" d="M113 104H15c-.6 0-1-.4-1-1V45c0-2.8 2.2-5 5-5h90c2.8 0 5 2.2 5 5v58c0 .6-.4 1-1 1zm-97-2h96V45c0-1.7-1.3-3-3-3H19c-1.7 0-3 1.3-3 3v57z"/><path d="M15 103h98v6c0 2.2-1.8 4-4 4H19c-2.2 0-4-1.8-4-4v-6z" fill="#ecf4ff"/><path class="st2" d="M109 114H19c-2.8 0-5-2.2-5-5v-6c0-.6.4-1 1-1h98c.6 0 1 .4 1 1v6c0 2.8-2.2 5-5 5zm-93-10v5c0 1.7 1.3 3 3 3h90c1.7 0 3-1.3 3-3v-5H16z"/><path class="st10" d="M94 99V33l-8-8H34v74z"/><path opacity=".3" fill="#5cbcff" d="M34 96h60v3H34z"/><path class="st12" d="M94 100H34c-.6 0-1-.4-1-1V25c0-.6.4-1 1-1h52c.3 0 .5.1.7.3l8 8c.2.2.3.4.3.7v66c0 .6-.4 1-1 1zm-59-2h58V33.4L85.6 26H35v72z"/><path fill="#eef6ff" d="M94 33h-8v-8z"/><path class="st12" d="M94 34h-8c-.6 0-1-.4-1-1v-8c0-.4.2-.8.6-.9.4-.2.8-.1 1.1.2l8 8c.3.3.4.7.2 1.1-.1.4-.5.6-.9.6zm-7-2h4.6L87 27.4V32z"/><path class="st12" d="M94 34h-8c-.6 0-1-.4-1-1v-8c0-.4.2-.8.6-.9.4-.2.8-.1 1.1.2l8 8c.3.3.4.7.2 1.1-.1.4-.5.6-.9.6zm-7-2h4.6L87 27.4V32z"/><g class="st14"><path class="st2" d="M70 57H60c-1.1 0-2-.9-2-2s.9-2 2-2h10c1.1 0 2 .9 2 2s-.9 2-2 2zM85 61H59c-.6 0-1-.4-1-1s.4-1 1-1h26c.6 0 1 .4 1 1s-.4 1-1 1z"/></g><g class="st14"><path class="st2" d="M76 71H60c-1.1 0-2-.9-2-2s.9-2 2-2h16c1.1 0 2 .9 2 2s-.9 2-2 2zM85 75H59c-.6 0-1-.4-1-1s.4-1 1-1h26c.6 0 1 .4 1 1s-.4 1-1 1z"/></g><g class="st14"><path class="st2" d="M66 85h-6c-1.1 0-2-.9-2-2s.9-2 2-2h6c1.1 0 2 .9 2 2s-.9 2-2 2zM73 89H59c-.6 0-1-.4-1-1s.4-1 1-1h14c.6 0 1 .4 1 1s-.4 1-1 1z"/></g><path d="M47 89.3c-.2 0-.4-.1-.6-.2l-3-2.4c-.5-.3-.6-.9-.3-1.4.3-.5.9-.6 1.4-.3l.1.1 2.2 1.8 3.9-5.2c.3-.4 1-.5 1.4-.2.4.3.5 1 .2 1.4l-4.5 6c-.2.2-.4.4-.7.4H47z" opacity=".5" fill="#6d6da8"/><path class="st16" d="M47 75.3c-.2 0-.4-.1-.6-.2l-3-2.4c-.5-.3-.6-.9-.3-1.4.3-.5.9-.6 1.4-.3l.1.1 2.2 1.8 3.9-5.2c.3-.4 1-.5 1.4-.2.4.3.5 1 .2 1.4l-4.5 6c-.2.2-.4.4-.7.4H47zM47 61.3c-.2 0-.4-.1-.6-.2l-3-2.4c-.5-.3-.6-.9-.3-1.4s.9-.6 1.4-.3l.1.1 2.2 1.8 3.9-5.2c.3-.4 1-.5 1.4-.2.4.3.5 1 .2 1.4l-4.5 6c-.2.2-.4.4-.7.4H47z"/><g class="st14"><path class="st2" d="M70.5 48c-.3 0-.5-.1-.7-.3l-5-4.9c-.2-.2-.3-.4-.3-.7 0-.3.1-.5.3-.7l.7-.7c.4-.4 1-.4 1.4 0l5 4.9c.2.2.3.4.3.7 0 .3-.1.5-.3.7l-.7.7c-.2.2-.4.3-.7.3z"/><path class="st2" d="M61.3 44.7c-.4 0-.8 0-1.2-.1-3.2-.5-5.8-3-6.3-6.3-.3-2.2.5-4.5 2.1-6.1 1.7-1.7 4-2.5 6.4-2.2 3.2.4 5.8 2.9 6.4 6.1.4 2.2-.3 4.4-1.7 6l-.7.7c-1.4 1.2-3.2 1.9-5 1.9zm0-12.7c-1.5 0-2.9.6-4 1.6-1.1 1.2-1.7 2.8-1.4 4.4.4 2.4 2.2 4.2 4.6 4.6 1.6.3 3.2-.2 4.5-1.2l.6-.6c1-1.2 1.5-2.7 1.2-4.3-.4-2.3-2.3-4.1-4.7-4.4-.3-.1-.6-.1-.8-.1zm4.9 9.4z"/></g><path class="st17" d="M6.3 78L14 96h100l7.7-18z"/><path class="st17" d="M116.6 90l5.1-12H6.3l5.1 12z"/><path class="st17" d="M119.1 84l2.6-6H6.3l2.6 6z"/><path opacity=".3" fill="#d94962" d="M120.8 80l.9-2H6.3l.9 2z"/><path d="M121 79H7c-1.1 0-2-.9-2-2s.9-2 2-2h114c1.1 0 2 .9 2 2s-.9 2-2 2" fill="#f95540"/><g class="st0"><defs><path id="SVGID_1_" d="M7 76h114v2H7z"/></defs><clipPath id="SVGID_2_"><use xlink:href="#SVGID_1_" overflow="visible"/></clipPath><g clip-path="url(#SVGID_2_)"><path class="st10" d="M120 78H8c-.6 0-1-.4-1-1s.4-1 1-1h112c.6 0 1 .4 1 1s-.4 1-1 1"/></g></g><g class="st0"><defs><path id="SVGID_3_" d="M28 76h72v2H28z"/></defs><clipPath id="SVGID_4_"><use xlink:href="#SVGID_3_" overflow="visible"/></clipPath><g clip-path="url(#SVGID_4_)"><path class="st10" d="M99 78H29c-.6 0-1-.4-1-1s.4-1 1-1h70c.6 0 1 .4 1 1s-.4 1-1 1"/></g></g><g class="st0"><defs><path id="SVGID_5_" d="M54 76h20v2H54z"/></defs><clipPath id="SVGID_6_"><use xlink:href="#SVGID_5_" overflow="visible"/></clipPath><g clip-path="url(#SVGID_6_)"><path class="st10" d="M73 78H55c-.6 0-1-.4-1-1s.4-1 1-1h18c.6 0 1 .4 1 1s-.4 1-1 1"/></g></g></svg>