<svg xmlns="http://www.w3.org/2000/svg" xmlns:xlink="http://www.w3.org/1999/xlink" viewBox="0 0 1104.85 1121.84"><defs><pattern id="a" width="300" height="299" patternUnits="userSpaceOnUse" viewBox="0 0 300 299"><rect width="300" height="299" style="fill:none"/><rect x="222.5" y="224.51" width="301" height="300" style="fill:#f95540"/><rect x="72.5" y="224.51" width="301" height="300" style="fill:#f95540"/><rect x="-77.5" y="224.51" width="301" height="300" style="fill:#f95540"/><rect x="-227.5" y="224.51" width="301" height="300" style="fill:#f95540"/><rect x="297.5" y="75" width="301" height="300" style="fill:#f95540"/><rect x="147.5" y="75" width="301" height="300" style="fill:#f95540"/><rect x="-2.5" y="75" width="301" height="300" style="fill:#f95540"/><path d="M253.94,259.77a4,4,0,0,1-3.49-2H243.8V276h2a2,2,0,0,1,2,2v10.14a2,2,0,0,1-2,2h-2v10.14h2a2.05,2.05,0,0,1,1.82,1.12l2,4.06a2,2,0,0,1,.22.91v2a2,2,0,0,1-2,2H235.69a2,2,0,0,1-2-2v-2a2,2,0,0,1,.21-.91l2-4.06a2.05,2.05,0,0,1,1.82-1.12h2V288.16a2,2,0,0,1,2-2h2v-6.08h-4.05v.66a2,2,0,0,1-2.95,1.82c-5.34-2.7-13.73-4.51-20.89-4.51h-.5a14.22,14.22,0,0,0-14.2,14.2v28.4a14.21,14.21,0,0,0,14.19,14.19,41.9,41.9,0,0,0,21.57-6l8.86-5.32v-.88h-8.46a6.1,6.1,0,0,1-5.74,4.06H215.41a6.09,6.09,0,0,1-6.09-6.08v-28.4a6.09,6.09,0,0,1,6.09-6.09h18.25a2,2,0,0,1,0,4.06H215.41a2,2,0,0,0-2,2v28.4a2,2,0,0,0,2,2h16.22a2,2,0,0,0,2-2,2,2,0,0,1,2-2h14.2a2,2,0,1,1,0,4.05v2a2,2,0,0,1-1,1.74l-9.84,5.91a46.08,46.08,0,0,1-23.66,6.55,18.27,18.27,0,0,1-18.25-18.25v-28.4A18.28,18.28,0,0,1,215.41,274h.5a57.28,57.28,0,0,1,19.82,3.65,2,2,0,0,1,2-1.62h2V257.74H233.1a4.06,4.06,0,1,1,0-4.06h6.65v-2a2,2,0,1,1,4.05,0v2h6.65a4.05,4.05,0,1,1,3.49,6.09Zm-16,46.65h7.63l-1-2H239Z" style="opacity:0.08"/><rect x="-152.5" y="75" width="301" height="300" style="fill:#f95540"/><path d="M103.94,259.77a4,4,0,0,1-3.49-2H93.8V276h2a2,2,0,0,1,2,2v10.14a2,2,0,0,1-2,2h-2v10.14h2a2.05,2.05,0,0,1,1.82,1.12l2,4.06a2,2,0,0,1,.22.91v2a2,2,0,0,1-2,2H85.69a2,2,0,0,1-2-2v-2a2,2,0,0,1,.21-.91l2-4.06a2.05,2.05,0,0,1,1.82-1.12h2V288.16a2,2,0,0,1,2-2h2v-6.08h-4v.66a2,2,0,0,1-3,1.82c-5.34-2.7-13.73-4.51-20.89-4.51h-.5a14.22,14.22,0,0,0-14.2,14.2v28.4A14.21,14.21,0,0,0,65.4,334.81a41.9,41.9,0,0,0,21.57-6l8.86-5.32v-.88H87.37a6.1,6.1,0,0,1-5.74,4.06H65.41a6.09,6.09,0,0,1-6.09-6.08v-28.4a6.09,6.09,0,0,1,6.09-6.09H83.66a2,2,0,0,1,0,4.06H65.41a2,2,0,0,0-2,2v28.4a2,2,0,0,0,2,2H81.63a2,2,0,0,0,2-2,2,2,0,0,1,2-2h14.2a2,2,0,1,1,0,4.05v2a2,2,0,0,1-1,1.74l-9.84,5.91a46.08,46.08,0,0,1-23.66,6.55,18.27,18.27,0,0,1-18.25-18.25v-28.4A18.28,18.28,0,0,1,65.41,274h.5a57.28,57.28,0,0,1,19.82,3.65,2,2,0,0,1,2-1.62h2V257.74H83.1a4.06,4.06,0,1,1,0-4.06h6.65v-2a2,2,0,1,1,4,0v2h6.65a4.05,4.05,0,1,1,3.49,6.09ZM88,306.42h7.63l-1-2H89Z" style="opacity:0.08"/><rect x="222.5" y="-74.5" width="301" height="300" style="fill:#f95540"/><rect x="72.5" y="-74.5" width="301" height="300" style="fill:#f95540"/><path d="M328.94,110.26a4,4,0,0,1-3.49-2H318.8v18.25h2a2,2,0,0,1,2,2v10.14a2,2,0,0,1-2,2h-2v10.14h2a2,2,0,0,1,1.82,1.12l2,4.06a2,2,0,0,1,.22.91v2a2,2,0,0,1-2,2H310.69a2,2,0,0,1-2-2v-2a2,2,0,0,1,.21-.91l2-4.06a2,2,0,0,1,1.82-1.12h2V138.66a2,2,0,0,1,2-2h2v-6.08h-4.05v.66A2,2,0,0,1,311.8,133c-5.34-2.69-13.73-4.5-20.89-4.5h-.5a14.22,14.22,0,0,0-14.2,14.2v28.39a14.21,14.21,0,0,0,14.19,14.2,41.9,41.9,0,0,0,21.57-6l8.86-5.32v-.88h-8.46a6.1,6.1,0,0,1-5.74,4.06H290.41a6.09,6.09,0,0,1-6.09-6.09V142.72a6.09,6.09,0,0,1,6.09-6.09h18.25a2,2,0,0,1,0,4.06H290.41a2,2,0,0,0-2,2v28.39a2,2,0,0,0,2,2h16.22a2,2,0,0,0,2-2,2,2,0,0,1,2-2h14.2a2,2,0,1,1,0,4v2a2,2,0,0,1-1,1.74l-9.84,5.91a46.08,46.08,0,0,1-23.66,6.55,18.28,18.28,0,0,1-18.25-18.26V142.72a18.28,18.28,0,0,1,18.26-18.26h.5a57.28,57.28,0,0,1,19.82,3.65,2,2,0,0,1,2-1.62h2V108.24H308.1a4.06,4.06,0,1,1,0-4.06h6.65v-2a2,2,0,1,1,4.05,0v2h6.65a4,4,0,1,1,3.49,6.08Zm-16,46.66h7.63l-1-2H314Z" style="opacity:0.08"/><rect x="-77.5" y="-74.5" width="301" height="300" style="fill:#f95540"/><path d="M178.94,110.26a4,4,0,0,1-3.49-2H168.8v18.25h2a2,2,0,0,1,2,2v10.14a2,2,0,0,1-2,2h-2v10.14h2a2,2,0,0,1,1.82,1.12l2,4.06a2,2,0,0,1,.22.91v2a2,2,0,0,1-2,2H160.69a2,2,0,0,1-2-2v-2a2,2,0,0,1,.21-.91l2-4.06a2,2,0,0,1,1.82-1.12h2V138.66a2,2,0,0,1,2-2h2v-6.08h-4.05v.66A2,2,0,0,1,161.8,133c-5.34-2.69-13.73-4.5-20.89-4.5h-.5a14.22,14.22,0,0,0-14.2,14.2v28.39a14.21,14.21,0,0,0,14.19,14.2,41.9,41.9,0,0,0,21.57-6l8.86-5.32v-.88h-8.46a6.1,6.1,0,0,1-5.74,4.06H140.41a6.09,6.09,0,0,1-6.09-6.09V142.72a6.09,6.09,0,0,1,6.09-6.09h18.25a2,2,0,0,1,0,4.06H140.41a2,2,0,0,0-2,2v28.39a2,2,0,0,0,2,2h16.22a2,2,0,0,0,2-2,2,2,0,0,1,2-2h14.2a2,2,0,1,1,0,4v2a2,2,0,0,1-1,1.74l-9.84,5.91a46.08,46.08,0,0,1-23.66,6.55,18.28,18.28,0,0,1-18.25-18.26V142.72a18.28,18.28,0,0,1,18.26-18.26h.5a57.28,57.28,0,0,1,19.82,3.65,2,2,0,0,1,2-1.62h2V108.24H158.1a4.06,4.06,0,1,1,0-4.06h6.65v-2a2,2,0,1,1,4.05,0v2h6.65a4,4,0,1,1,3.49,6.08Zm-16,46.66h7.63l-1-2H164Z" style="opacity:0.08"/><rect x="-227.5" y="-74.5" width="301" height="300" style="fill:#f95540"/><path d="M28.94,110.26a4,4,0,0,1-3.49-2H18.8v18.25h2a2,2,0,0,1,2,2v10.14a2,2,0,0,1-2,2h-2v10.14h2A2,2,0,0,1,22.65,152l2,4.06a2,2,0,0,1,.22.91v2a2,2,0,0,1-2,2H10.69a2,2,0,0,1-2-2v-2a2,2,0,0,1,.21-.91l2-4.06a2,2,0,0,1,1.82-1.12h2V138.66a2,2,0,0,1,2-2h2v-6.08H14.75v.66A2,2,0,0,1,11.8,133c-5.34-2.69-13.73-4.5-20.89-4.5h-.5a14.22,14.22,0,0,0-14.2,14.2v28.39A14.21,14.21,0,0,0-9.6,185.31a41.9,41.9,0,0,0,21.57-6L20.83,174v-.88H12.37a6.1,6.1,0,0,1-5.74,4.06H-9.59a6.09,6.09,0,0,1-6.09-6.09V142.72a6.09,6.09,0,0,1,6.09-6.09H8.66a2,2,0,0,1,0,4.06H-9.59a2,2,0,0,0-2,2v28.39a2,2,0,0,0,2,2H6.63a2,2,0,0,0,2-2,2,2,0,0,1,2-2h14.2a2,2,0,1,1,0,4v2a2,2,0,0,1-1,1.74l-9.84,5.91A46.08,46.08,0,0,1-9.6,189.37a18.28,18.28,0,0,1-18.25-18.26V142.72A18.28,18.28,0,0,1-9.59,124.46h.5a57.28,57.28,0,0,1,19.82,3.65,2,2,0,0,1,2-1.62h2V108.24H8.1a4.06,4.06,0,1,1,0-4.06h6.65v-2a2,2,0,1,1,4.05,0v2h6.65a4,4,0,1,1,3.49,6.08ZM13,156.92h7.63l-1-2H14Z" style="opacity:0.08"/><rect x="297.5" y="-224" width="301" height="300" style="fill:#f95540"/><rect x="147.5" y="-224" width="301" height="300" style="fill:#f95540"/><rect x="-2.5" y="-224" width="301" height="300" style="fill:#f95540"/><path d="M253.94-39.24a4,4,0,0,1-3.49-2H243.8V-23h2a2,2,0,0,1,2,2v10.14a2,2,0,0,1-2,2h-2V1.33h2a2,2,0,0,1,1.82,1.12l2,4.06a2,2,0,0,1,.22.9v2a2,2,0,0,1-2,2H235.69a2,2,0,0,1-2-2v-2a2,2,0,0,1,.21-.9l2-4.06a2,2,0,0,1,1.82-1.12h2V-10.84a2,2,0,0,1,2-2h2v-6.08h-4.05v.66a2,2,0,0,1-1,1.73,2,2,0,0,1-2,.08c-5.34-2.69-13.73-4.5-20.89-4.5h-.5a14.22,14.22,0,0,0-14.2,14.2V21.61a14.21,14.21,0,0,0,14.19,14.2,42,42,0,0,0,21.57-6l8.86-5.32v-.88h-8.46a6.1,6.1,0,0,1-5.74,4.06H215.41a6.09,6.09,0,0,1-6.09-6.09V-6.78a6.09,6.09,0,0,1,6.09-6.09h18.25a2,2,0,0,1,2,2,2,2,0,0,1-2,2H215.41a2,2,0,0,0-2,2V21.61a2,2,0,0,0,2,2h16.22a2,2,0,0,0,2-2,2,2,0,0,1,2-2h14.2a2,2,0,0,1,0,4.06v2a2,2,0,0,1-1,1.74l-9.84,5.91a46.08,46.08,0,0,1-23.66,6.55,18.28,18.28,0,0,1-18.25-18.26V-6.78A18.28,18.28,0,0,1,215.41-25h.5a57.28,57.28,0,0,1,19.82,3.65,2,2,0,0,1,2-1.62h2V-41.27H233.1a4,4,0,0,1-3.5,2,4,4,0,0,1-4-4,4.05,4.05,0,0,1,4-4.06,4.05,4.05,0,0,1,3.5,2h6.65v-2a2,2,0,0,1,2-2,2,2,0,0,1,2,2v2h6.65a4,4,0,0,1,3.49-2A4.06,4.06,0,0,1,258-43.29,4.05,4.05,0,0,1,253.94-39.24ZM238,7.41h7.63l-1-2H239Z" style="opacity:0.08"/><rect x="-152.5" y="-224" width="301" height="300" style="fill:#f95540"/><path d="M103.94-39.24a4,4,0,0,1-3.49-2H93.8V-23h2a2,2,0,0,1,2,2v10.14a2,2,0,0,1-2,2h-2V1.33h2a2,2,0,0,1,1.82,1.12l2,4.06a2,2,0,0,1,.22.9v2a2,2,0,0,1-2,2H85.69a2,2,0,0,1-2-2v-2a2,2,0,0,1,.21-.9l2-4.06a2,2,0,0,1,1.82-1.12h2V-10.84a2,2,0,0,1,2-2h2v-6.08h-4v.66a2,2,0,0,1-1,1.73,2,2,0,0,1-2,.08C81.46-19.17,73.07-21,65.91-21h-.5a14.22,14.22,0,0,0-14.2,14.2V21.61A14.21,14.21,0,0,0,65.4,35.81a42,42,0,0,0,21.57-6l8.86-5.32v-.88H87.37a6.1,6.1,0,0,1-5.74,4.06H65.41a6.09,6.09,0,0,1-6.09-6.09V-6.78a6.09,6.09,0,0,1,6.09-6.09H83.66a2,2,0,0,1,2,2,2,2,0,0,1-2,2H65.41a2,2,0,0,0-2,2V21.61a2,2,0,0,0,2,2H81.63a2,2,0,0,0,2-2,2,2,0,0,1,2-2h14.2a2,2,0,0,1,0,4.06v2a2,2,0,0,1-1,1.74l-9.84,5.91A46.08,46.08,0,0,1,65.4,39.87,18.28,18.28,0,0,1,47.15,21.61V-6.78A18.28,18.28,0,0,1,65.41-25h.5a57.28,57.28,0,0,1,19.82,3.65,2,2,0,0,1,2-1.62h2V-41.27H83.1a4,4,0,0,1-3.5,2,4,4,0,0,1-4-4,4.05,4.05,0,0,1,4-4.06,4.05,4.05,0,0,1,3.5,2h6.65v-2a2,2,0,0,1,2-2,2,2,0,0,1,2,2v2h6.65a4,4,0,0,1,3.49-2A4.06,4.06,0,0,1,108-43.29,4.05,4.05,0,0,1,103.94-39.24ZM88,7.41h7.63l-1-2H89Z" style="opacity:0.08"/></pattern></defs><title>rounded-triangle-shape-left</title><path d="M1012.28,428.6a165.69,165.69,0,0,1,0,296.38c-233.56,116.89-555,277.49-772.52,386.37A165.66,165.66,0,0,1,0,963.16V190.68A165.66,165.66,0,0,1,239.76,42.49C457.29,151.11,778.72,312,1012.28,428.6Z" transform="translate(0 -7)" style="fill:#e5e5e5"/><path d="M1013.28,410.6a165.69,165.69,0,0,1,0,296.38c-233.56,116.89-555,277.49-772.52,386.37A165.66,165.66,0,0,1,1,945.16V172.68A165.66,165.66,0,0,1,240.76,24.49C458.29,133.11,779.72,294,1013.28,410.6Z" transform="translate(0 -7)" style="fill:url(#a)"/></svg>